<svg width="432" height="511" viewBox="0 0 432 511" fill="none" xmlns="http://www.w3.org/2000/svg">
<path fill-rule="evenodd" clip-rule="evenodd" d="M11.7932 9.03248C8.34893 7.91363 7.14798 6.5211 5.8966 3C4.62586 6.84414 3.30902 8.18289 0 9.03248C3.10092 10.5855 4.44066 11.8216 5.8966 15.065C7.15991 11.9344 8.37746 10.562 11.7932 9.03248ZM16.0001 19.0987C13.2016 18.1896 12.2258 17.0582 11.2091 14.1973C10.1766 17.3206 9.10669 18.4084 6.41811 19.0987C8.9376 20.3605 10.0261 21.3648 11.2091 24C12.2355 21.4564 13.2248 20.3414 16.0001 19.0987Z" fill="#D5C9FF"/>
<path d="M22.7949 20H20.3516L24.834 7.27344H27.6465L32.1465 20H29.7031L28.6484 16.8535H23.8496L22.7949 20ZM24.4648 15.0078H28.0332L26.293 9.875H26.1875L24.4648 15.0078ZM35.5834 7.27344V20H33.2982V7.27344H35.5834ZM55.3419 15.2188V16.8184H49.0489V21.582H47.1153V16.8184H40.8575V15.2188H55.3419ZM53.9884 7.55469V9.10156H49.0841C49.2686 10.6748 51.3341 12.3184 54.5157 12.7051L53.795 14.252C51.1671 13.918 49.128 12.7578 48.0997 11.2285C47.0538 12.7754 44.9971 13.918 42.3516 14.252L41.6485 12.7051C44.8214 12.3184 46.9044 10.7012 47.0977 9.10156H42.1934V7.55469H47.1153V5.69141H49.0489V7.55469H53.9884ZM61.767 9.43555C61.767 11.334 63.0854 13.1621 65.5991 13.9355L64.6498 15.4648C62.8481 14.9199 61.5473 13.7686 60.8178 12.3008C60.1147 13.8828 58.8051 15.1309 56.9506 15.7285L56.0014 14.1992C58.4975 13.4082 59.8159 11.4746 59.8159 9.43555V9.18945H56.4936V7.64258H59.8159V5.7793H61.7846V7.64258H65.0893V9.18945H61.767V9.43555ZM69.3608 5.69141V17.4863H67.4096V11.9844H64.562V10.4199H67.4096V5.69141H69.3608ZM69.7651 19.666V21.248H58.937V16.4668H60.8881V19.666H69.7651ZM87.7482 5.67383V9.54102H89.8927V11.1758H87.7482V15.0254H85.797V5.67383H87.7482ZM87.7482 15.6582V19.0859H79.1173V20.1055H88.3107V21.4238H77.1662V17.873H85.797V16.9766H77.131V15.6582H87.7482ZM75.0216 13.4258C76.217 13.4258 77.588 13.4258 79.0295 13.373V12.582C77.2453 12.4062 76.1466 11.6855 76.1466 10.5078C76.1466 9.22461 77.6408 8.46875 79.9787 8.46875C82.3166 8.46875 83.8107 9.22461 83.8107 10.5078C83.8107 11.668 82.7384 12.3887 80.9806 12.582V13.3027C82.3341 13.25 83.6964 13.1357 84.9709 12.9688L85.1291 14.1992C81.7365 14.7793 78.0099 14.7969 75.2326 14.7969L75.0216 13.4258ZM84.549 6.74609V8.08203H75.4259V6.74609H79.0295V5.55078H80.9806V6.74609H84.549ZM79.9787 9.69922C78.7482 9.7168 78.0099 9.98047 78.0275 10.5078C78.0099 11.0703 78.7482 11.3867 79.9787 11.3867C81.2091 11.3867 81.9474 11.0703 81.9474 10.5078C81.9474 9.98047 81.2091 9.7168 79.9787 9.69922ZM104.861 13.2852V14.8496H90.3589V13.2852H96.6519V11.7734H92.1343V6.39453H103.103V7.92383H94.0855V10.2266H103.191V11.7734H98.5679V13.2852H104.861ZM97.5835 15.7637C101.011 15.7637 103.068 16.8008 103.085 18.6641C103.068 20.5098 101.011 21.5645 97.5835 21.5645C94.1206 21.5645 92.0464 20.5098 92.0464 18.6641C92.0464 16.8008 94.1206 15.7637 97.5835 15.7637ZM97.5835 17.2578C95.2632 17.2578 94.0152 17.75 94.0327 18.6641C94.0152 19.5781 95.2632 20.0527 97.5835 20.0527C99.8511 20.0527 101.117 19.5781 101.134 18.6641C101.117 17.75 99.8511 17.2578 97.5835 17.2578Z" fill="#111111"/>
<rect y="41" width="432" height="470" rx="16" fill="#F8F9FB"/>
<path d="M30.9141 76.8594V91H28.3555V79.3398H28.2773L24.9766 81.4492V79.125L28.4727 76.8594H30.9141ZM34.7328 91.1562C33.893 91.1562 33.2094 90.4727 33.2094 89.6328C33.2094 88.8125 33.893 88.1289 34.7328 88.1289C35.5336 88.1289 36.2367 88.8125 36.2367 89.6328C36.2367 90.4727 35.5336 91.1562 34.7328 91.1562Z" fill="#111111"/>
<path d="M57.9551 74.7441V78.6289H60.2402V80.0352H57.9551V83.9551H56.2852V74.7441H57.9551ZM53.5957 75.7109C53.5957 79.7715 50.8535 82.6016 46.1777 83.8145L45.4922 82.5312C49.2715 81.5469 51.5127 79.5518 51.8027 77.0645H46.248V75.7109H53.5957ZM57.9551 84.6406V90.4941H56.2852V85.9941H47.5488V84.6406H57.9551ZM66.2611 79.3848C66.2611 81.8809 67.8959 84.6582 70.2865 85.7832L69.3373 87.084C67.5707 86.2314 66.1732 84.4561 65.4701 82.3906C64.7406 84.6494 63.264 86.5918 61.4623 87.4883L60.4779 86.1699C62.8685 85.0273 64.6088 82.0566 64.6088 79.3848V77.7148H61.058V76.3262H69.6888V77.7148H66.2611V79.3848ZM73.0463 74.7441V80.9844H75.5775V82.3906H73.0463V90.4941H71.3763V74.7441H73.0463ZM93.5255 74.7441V90.4941H91.9259V74.7441H93.5255ZM90.3262 75.0781V89.7031H88.7442V81.6875H86.3009V80.3164H88.7442V75.0781H90.3262ZM84.754 79.1387C84.754 81.8281 85.8438 84.5176 88.0587 85.8008L87.0567 87.0312C85.5538 86.1348 84.5167 84.5439 83.9805 82.6367C83.4093 84.6934 82.337 86.4424 80.7989 87.4004L79.7794 86.1523C82.0118 84.7988 83.1544 81.9336 83.1544 79.1387V77.873H80.254V76.5195H87.461V77.873H84.754V79.1387ZM109.566 83.6211V84.9746H103.167V90.4766H101.533V84.9746H95.2045V83.6211H109.566ZM108.212 75.6758V77.0117H103.343C103.37 78.9629 105.795 80.7031 108.775 81.1074L108.16 82.4258C105.576 82.0215 103.343 80.7471 102.394 78.9453C101.418 80.7471 99.1948 82.0215 96.6459 82.4258L96.0131 81.1074C98.9575 80.7031 101.383 78.9629 101.445 77.0117H96.5405V75.6758H108.212ZM123.163 82.0039V83.3398H118.399V87.1895H124.815V88.5605H110.401V87.1895H116.747V83.3398H112.194V75.957H123.022V77.3105H113.864V82.0039H123.163ZM140.012 87.207V88.6133H125.598V87.207H131.944V84.4473H127.356V79.4375H136.602V77.2227H127.32V75.8516H138.254V80.7734H129.008V83.0762H138.623V84.4473H133.596V87.207H140.012ZM157.872 74.7441V90.5293H156.202V74.7441H157.872ZM149.452 75.9219C151.79 75.9219 153.513 78.0664 153.513 81.4414C153.513 84.834 151.79 86.9785 149.452 86.9785C147.079 86.9785 145.374 84.834 145.374 81.4414C145.374 78.0664 147.079 75.9219 149.452 75.9219ZM149.452 77.416C147.993 77.416 146.991 78.9629 146.991 81.4414C146.991 83.9375 147.993 85.4844 149.452 85.4844C150.893 85.4844 151.895 83.9375 151.895 81.4414C151.895 78.9629 150.893 77.416 149.452 77.416ZM174.387 83.6211V84.9746H167.989V90.4766H166.354V84.9746H160.026V83.6211H174.387ZM173.033 75.6758V77.0117H168.164C168.191 78.9629 170.616 80.7031 173.596 81.1074L172.981 82.4258C170.397 82.0215 168.164 80.7471 167.215 78.9453C166.239 80.7471 164.016 82.0215 161.467 82.4258L160.834 81.1074C163.779 80.7031 166.204 78.9629 166.266 77.0117H161.362V75.6758H173.033ZM189.619 81.9688V83.252H175.205V81.9688H189.619ZM187.843 84.3594V87.8223H178.597V89.123H188.336V90.3008H176.927V86.7148H186.191V85.5547H176.91V84.3594H187.843ZM187.808 75.1484V78.5586H178.703V79.7539H188.072V80.9316H177.05V77.4512H186.138V76.3262H177.015V75.1484H187.808ZM207.584 74.7441V82.7598H205.914V81.248H201.924V79.9473H205.914V78.2422H202.117C201.142 80.6855 198.769 82.2939 195.28 83.1113L194.7 81.7402C198.479 80.9053 200.527 79.1562 200.799 76.8359H195.526V75.4648H202.627C202.627 75.9746 202.583 76.458 202.504 76.9238H205.914V74.7441H207.584ZM207.584 83.4277V87.418H198.971V89H208.059V90.3359H197.319V86.1523H205.914V84.7461H197.284V83.4277H207.584ZM222.711 74.7617V83.6738H221.041V74.7617H222.711ZM222.711 84.5176V90.3008H212.357V84.5176H222.711ZM214.009 85.8535V88.9473H221.076V85.8535H214.009ZM215.381 76.8887C215.363 79.0156 216.892 80.9316 219.283 81.7402L218.457 83.0234C216.629 82.417 215.258 81.1689 214.537 79.543C213.834 81.2744 212.436 82.6543 210.547 83.3223L209.72 82.0039C212.181 81.1777 213.675 79.0859 213.675 76.8887V75.3594H215.381V76.8887ZM237.116 74.7441V81.125H239.648V82.5137H237.116V90.4941H235.464V74.7441H237.116ZM234.093 77.2051V78.5762H224.759V77.2051H228.644V74.9551H230.314V77.2051H234.093ZM229.487 79.7363C231.737 79.7363 233.39 81.248 233.407 83.3926C233.39 85.5547 231.737 87.0488 229.487 87.0664C227.22 87.0488 225.567 85.5547 225.567 83.3926C225.567 81.248 227.22 79.7363 229.487 79.7363ZM229.487 81.1074C228.151 81.1074 227.149 82.0391 227.167 83.3926C227.149 84.7637 228.151 85.6777 229.487 85.6602C230.823 85.6777 231.808 84.7637 231.808 83.3926C231.808 82.0391 230.823 81.1074 229.487 81.1074ZM253.579 74.7441V90.4941H251.996V74.7441H253.579ZM250.256 75.1484V89.7207H248.674V82.4082H245.598C244.658 84.2363 243.163 85.8359 240.94 87.1367L239.991 85.9414C243.33 83.9551 244.939 81.3096 245.229 78.0664H240.729V76.6953H246.881C246.872 78.2334 246.662 79.7012 246.178 81.0723H248.674V75.1484H250.256ZM268.45 79.7891V81.1426H265.374V83.1289C266.772 83.0674 268.16 82.9707 269.452 82.8301L269.575 84.0605C266.218 84.5176 262.526 84.6055 259.573 84.6055L259.345 83.2695C260.69 83.2607 262.193 83.2432 263.722 83.1992V81.1426H260.751V75.7461H268.31V77.0996H262.421V79.7891H268.45ZM272.335 74.7441V86.5566H270.665V74.7441H272.335ZM272.827 88.8066V90.1602H261.946V85.7129H263.616V88.8066H272.827ZM292.041 74.7441V90.4941H290.459V74.7441H292.041ZM288.824 75.1484V89.7207H287.242V84.3594H284.553V82.9883H287.242V80.4219H284.816C284.052 83.0674 282.373 85.3613 279.402 87.1367L278.418 85.9414C281.758 83.9551 283.366 81.3096 283.656 78.0664H279.191V76.6953H285.308C285.308 77.5039 285.247 78.2861 285.115 79.0508H287.242V75.1484H288.824ZM306.798 74.7441V90.4941H305.111V74.7441H306.798ZM302.105 76.4316C302.105 81.0371 300.136 85.0449 294.739 87.6289L293.861 86.2754C298.053 84.2803 300.092 81.4414 300.417 77.7676H294.616V76.4316H302.105ZM313.628 75.7461C316.053 75.7461 317.864 77.2754 317.864 79.4902C317.864 81.4414 316.458 82.8564 314.471 83.1641V85.6602C315.869 85.5986 317.266 85.4932 318.567 85.3262L318.69 86.5742C315.368 87.1543 311.694 87.1719 308.969 87.1543L308.706 85.7832C309.927 85.7744 311.334 85.7656 312.801 85.7305V83.1641C310.762 82.874 309.374 81.4502 309.391 79.4902C309.374 77.2754 311.149 75.7461 313.628 75.7461ZM313.628 77.1523C312.116 77.1699 311.008 78.084 311.008 79.4902C311.008 80.8965 312.116 81.8281 313.628 81.8105C315.122 81.8281 316.211 80.8965 316.229 79.4902C316.211 78.084 315.122 77.1699 313.628 77.1523ZM321.186 74.7441V81.1426H323.612V82.5488H321.186V90.4941H319.516V74.7441H321.186ZM58.7109 103.762V115.768H57.041V112.516H54.5098V111.18H57.041V109.229H54.5098V107.857H57.041V103.762H58.7109ZM54.457 105.59V106.943H45.5977V105.59H49.2891V103.744H50.9414V105.59H54.457ZM50.0977 107.699C52.2246 107.699 53.7188 108.93 53.7363 110.723C53.7188 112.533 52.2246 113.764 50.0977 113.764C47.9707 113.764 46.4766 112.533 46.4766 110.723C46.4766 108.93 47.9707 107.699 50.0977 107.699ZM50.0977 109C48.8672 109.018 48.041 109.686 48.041 110.723C48.041 111.795 48.8672 112.463 50.0977 112.463C51.3105 112.463 52.1543 111.795 52.1719 110.723C52.1543 109.686 51.3105 109.018 50.0977 109ZM59.0625 117.807V119.16H48.4277V114.713H50.1152V117.807H59.0625ZM74.3822 103.744V119.494H72.7826V111.408H70.9017V118.721H69.3197V104.043H70.9017V110.002H72.7826V103.744H74.3822ZM65.558 107.91C65.558 110.74 66.6302 113.307 68.9154 114.484L67.931 115.768C66.3841 114.933 65.347 113.465 64.7845 111.637C64.2484 113.711 63.2025 115.363 61.6029 116.312L60.5658 115.047C62.8685 113.746 63.9408 111.039 63.9408 107.91V106.891H60.9877V105.537H68.3002V106.891H65.558V107.91ZM93.086 104.5V105.836H88.2872C88.3839 107.55 90.6514 109.062 93.5782 109.422L92.9454 110.74C90.2471 110.389 88.0323 109.132 87.1798 107.365C86.3272 109.123 84.1212 110.389 81.4317 110.74L80.7989 109.422C83.7432 109.062 85.9845 107.55 86.0723 105.836H81.3262V104.5H93.086ZM94.4044 111.76V113.113H88.1466V116.172H86.4942V113.113H79.9903V111.76H94.4044ZM92.8048 117.807V119.16H81.7833V114.66H83.4532V117.807H92.8048ZM108.248 103.744V119.529H106.578V103.744H108.248ZM97.7534 105.062V109.105H101.99V105.062H103.642V115.75H96.0834V105.062H97.7534ZM97.7534 114.379H101.99V110.424H97.7534V114.379ZM119.867 106.258C119.867 108.332 121.309 110.248 123.664 111.021L122.768 112.34C121.045 111.733 119.753 110.503 119.076 108.947C118.382 110.714 117.046 112.094 115.209 112.779L114.313 111.443C116.774 110.564 118.197 108.473 118.215 106.117V104.57H119.867V106.258ZM126.811 103.744V107.699H129.096V109.105H126.811V113.254H125.141V103.744H126.811ZM121.731 113.623C124.965 113.623 126.951 114.695 126.951 116.541C126.951 118.404 124.965 119.477 121.731 119.459C118.461 119.477 116.44 118.404 116.44 116.541C116.44 114.695 118.461 113.623 121.731 113.623ZM121.731 114.941C119.445 114.941 118.092 115.539 118.11 116.541C118.092 117.578 119.445 118.141 121.731 118.158C123.998 118.141 125.317 117.578 125.317 116.541C125.317 115.539 123.998 114.941 121.731 114.941ZM142.025 103.762V108.402H144.275V109.791H142.025V114.414H140.355V103.762H142.025ZM136.875 114.59C140.197 114.572 142.113 115.451 142.13 117.051C142.113 118.633 140.197 119.477 136.875 119.494C133.535 119.477 131.619 118.633 131.619 117.051C131.619 115.451 133.535 114.572 136.875 114.59ZM136.875 115.82C134.519 115.82 133.289 116.26 133.306 117.051C133.289 117.807 134.519 118.246 136.875 118.246C139.195 118.246 140.425 117.807 140.425 117.051C140.425 116.26 139.195 115.82 136.875 115.82ZM129.527 112.48C130.749 112.489 132.164 112.489 133.64 112.445V111.285C131.83 111.109 130.705 110.301 130.722 109.088C130.705 107.682 132.181 106.855 134.466 106.855C136.734 106.855 138.21 107.682 138.21 109.088C138.21 110.292 137.094 111.101 135.31 111.285V112.375C136.716 112.305 138.14 112.19 139.459 112.006L139.599 113.166C136.224 113.746 132.498 113.799 129.703 113.799L129.527 112.48ZM139.019 105.027V106.275H129.931V105.027H133.64V103.621H135.31V105.027H139.019ZM134.466 107.98C133.113 107.98 132.304 108.402 132.304 109.088C132.304 109.791 133.113 110.213 134.466 110.213C135.802 110.213 136.611 109.791 136.611 109.088C136.611 108.402 135.802 107.98 134.466 107.98ZM152.001 104.008C155.552 104.008 157.626 104.957 157.626 106.715C157.626 108.473 155.552 109.439 152.001 109.439C148.45 109.439 146.376 108.473 146.376 106.715C146.376 104.957 148.45 104.008 152.001 104.008ZM152.001 105.238C149.487 105.238 148.099 105.783 148.116 106.715C148.099 107.682 149.487 108.191 152.001 108.191C154.515 108.191 155.903 107.682 155.903 106.715C155.903 105.783 154.515 105.238 152.001 105.238ZM159.19 110.406V111.742H144.829V110.406H159.19ZM157.38 112.955V116.646H148.204V118.053H157.819V119.336H146.569V115.434H155.727V114.203H146.552V112.955H157.38ZM171.162 113.641C174.572 113.641 176.716 114.713 176.734 116.559C176.716 118.387 174.572 119.477 171.162 119.459C167.787 119.477 165.625 118.387 165.625 116.559C165.625 114.713 167.787 113.641 171.162 113.641ZM171.162 114.906C168.771 114.906 167.277 115.521 167.295 116.559C167.277 117.578 168.771 118.176 171.162 118.176C173.57 118.176 175.064 117.578 175.082 116.559C175.064 115.521 173.57 114.906 171.162 114.906ZM176.611 104.518V105.836C176.611 107.102 176.611 108.402 176.171 110.02L174.537 109.844C174.959 108.235 174.959 107.075 174.959 105.854H165.748V104.518H176.611ZM178.404 110.986V112.34H164.078V110.986H169.826V108.033H171.461V110.986H178.404ZM193.653 112.639V114.01H189.997V119.494H188.31V114.01H184.548V119.494H182.825V114.01H179.239V112.639H193.653ZM186.411 104.342C189.733 104.342 192.019 105.695 192.019 107.822C192.019 109.914 189.733 111.25 186.411 111.232C183.071 111.25 180.804 109.914 180.804 107.822C180.804 105.695 183.071 104.342 186.411 104.342ZM186.411 105.678C184.073 105.695 182.509 106.504 182.526 107.822C182.509 109.105 184.073 109.914 186.411 109.914C188.749 109.914 190.313 109.105 190.313 107.822C190.313 106.504 188.749 105.695 186.411 105.678ZM206.828 103.744V107.699H209.114V109.105H206.828V112.92H205.159V103.744H206.828ZM198.409 113.57V115.1H205.159V113.57H206.828V119.301H196.756V113.57H198.409ZM198.409 117.965H205.159V116.4H198.409V117.965ZM203.858 105.291V106.627H194.471V105.291H198.338V103.604H200.008V105.291H203.858ZM199.164 107.277C201.432 107.277 202.979 108.35 202.979 110.037C202.979 111.707 201.432 112.814 199.164 112.797C196.862 112.814 195.332 111.707 195.332 110.037C195.332 108.35 196.862 107.277 199.164 107.277ZM199.164 108.525C197.828 108.508 196.932 109.123 196.95 110.037C196.932 110.969 197.828 111.566 199.164 111.566C200.5 111.566 201.397 110.969 201.414 110.037C201.397 109.123 200.5 108.508 199.164 108.525ZM222.728 103.744V119.494H221.058V103.744H222.728ZM212.269 105.273V114.045C214.563 114.027 216.98 113.843 219.511 113.324L219.74 114.73C216.945 115.293 214.414 115.486 211.935 115.486H210.617V105.273H212.269ZM237.116 103.744V109.844H239.648V111.215H237.116V119.529H235.446V103.744H237.116ZM232.88 105.256V106.609H227.185V114.221C229.83 114.212 231.816 114.098 234.058 113.693L234.269 115.1C231.808 115.539 229.716 115.627 226.78 115.609H225.515V105.256H232.88ZM241.836 118.123C241.151 118.123 240.571 117.561 240.588 116.875C240.571 116.189 241.151 115.627 241.836 115.627C242.504 115.627 243.084 116.189 243.084 116.875C243.084 117.561 242.504 118.123 241.836 118.123Z" fill="#111111"/>
<path d="M25.1719 168V166.164L30.1719 161.34C31.5977 159.914 32.3398 159.074 32.3398 157.883C32.3398 156.574 31.3047 155.734 29.918 155.734C28.4531 155.734 27.5156 156.652 27.5352 158.078H25.1133C25.0938 155.402 27.1055 153.664 29.9375 153.664C32.8281 153.664 34.7812 155.383 34.7812 157.766C34.7812 159.367 34 160.656 31.2266 163.273L28.707 165.773V165.871H34.9961V168H25.1719ZM38.3852 168.156C37.5453 168.156 36.8617 167.473 36.8617 166.633C36.8617 165.812 37.5453 165.129 38.3852 165.129C39.1859 165.129 39.8891 165.812 39.8891 166.633C39.8891 167.473 39.1859 168.156 38.3852 168.156Z" fill="#111111"/>
<path d="M63.0977 151.744V167.494H61.498V151.744H63.0977ZM59.8984 152.078V166.703H58.3164V158.688H55.873V157.316H58.3164V152.078H59.8984ZM54.3262 156.139C54.3262 158.828 55.416 161.518 57.6309 162.801L56.6289 164.031C55.126 163.135 54.0889 161.544 53.5527 159.637C52.9814 161.693 51.9092 163.442 50.3711 164.4L49.3516 163.152C51.584 161.799 52.7266 158.934 52.7266 156.139V154.873H49.8262V153.52H57.0332V154.873H54.3262V156.139ZM79.138 160.621V161.975H72.7396V167.477H71.1048V161.975H64.7767V160.621H79.138ZM77.7845 152.676V154.012H72.9154C72.9418 155.963 75.3675 157.703 78.347 158.107L77.7318 159.426C75.1478 159.021 72.9154 157.747 71.9662 155.945C70.9906 157.747 68.767 159.021 66.2181 159.426L65.5853 158.107C68.5296 157.703 70.9554 155.963 71.017 154.012H66.1127V152.676H77.7845ZM92.7351 159.004V160.34H87.9714V164.189H94.3874V165.561H79.9734V164.189H86.3191V160.34H81.7663V152.957H92.5945V154.311H83.4363V159.004H92.7351ZM100.303 152.869C102.799 152.852 104.574 154.398 104.592 156.613C104.574 158.828 102.799 160.375 100.303 160.375C97.8243 160.375 95.9962 158.828 96.0137 156.613C95.9962 154.398 97.8243 152.852 100.303 152.869ZM100.303 154.311C98.7735 154.311 97.6485 155.225 97.6661 156.613C97.6485 158.002 98.7735 158.916 100.303 158.916C101.832 158.916 102.957 158.002 102.957 156.613C102.957 155.225 101.832 154.311 100.303 154.311ZM108.195 151.744V167.529H106.525V151.744H108.195ZM95.2579 162.748C98.1231 162.748 102.096 162.713 105.541 162.221L105.664 163.434C102.096 164.119 98.2813 164.137 95.4688 164.137L95.2579 162.748ZM127.655 151.744V167.494H125.968V151.744H127.655ZM114.296 159.162C116.352 159.162 118.699 159.145 121.046 159.021C121.432 156.921 121.503 155.356 121.538 154.275H115.667V152.922H123.19V153.643C123.173 154.68 123.173 156.446 122.751 158.916C123.48 158.872 124.21 158.811 124.913 158.74L125.018 159.988C123.463 160.199 121.854 160.331 120.272 160.41V166.58H118.602V160.48C117.17 160.533 115.79 160.551 114.524 160.551L114.296 159.162ZM142.324 155.998V157.352H137.613V159.25H143.977V160.621H129.598V159.25H135.961V157.352H131.514V152.025H133.166V155.998H142.324ZM136.77 161.693C140.162 161.693 142.201 162.748 142.201 164.594C142.201 166.422 140.162 167.477 136.77 167.459C133.36 167.477 131.303 166.422 131.303 164.594C131.303 162.748 133.36 161.693 136.77 161.693ZM136.77 162.994C134.361 162.994 132.99 163.557 132.99 164.594C132.99 165.578 134.361 166.176 136.77 166.176C139.143 166.176 140.531 165.578 140.531 164.594C140.531 163.557 139.143 162.994 136.77 162.994ZM157.6 152.939V153.818C157.583 154.873 157.583 156.438 157.196 158.477L155.544 158.318C155.887 156.569 155.939 155.304 155.966 154.311H149.655V152.939H157.6ZM153.575 156.473V159.725C155.263 159.672 157.003 159.549 158.585 159.32L158.69 160.533C155.403 161.113 151.641 161.166 148.864 161.184L148.706 159.83C149.673 159.821 150.771 159.812 151.923 159.777V156.473H153.575ZM161.292 151.744V156.754H163.454V158.16H161.292V163.574H159.587V151.744H161.292ZM161.802 165.807V167.16H151.097V162.502H152.766V165.807H161.802ZM171.531 152.852V157.598H166.328V159.936C168.948 159.927 170.503 159.848 172.358 159.531L172.533 160.885C170.494 161.236 168.807 161.289 165.819 161.289H164.658V156.314H169.844V154.188H164.623V152.852H171.531ZM177.156 151.762V163.346H175.487V159.215H172.551V157.844H175.487V155.664H172.551V154.328H175.487V151.762H177.156ZM177.614 165.736V167.107H166.803V162.484H168.473V165.736H177.614ZM196.388 151.744V161.113H194.718V157.123H191.782V155.752H194.718V151.744H196.388ZM191.114 161.553C194.419 161.553 196.44 162.643 196.44 164.523C196.44 166.404 194.419 167.477 191.114 167.494C187.81 167.477 185.77 166.404 185.788 164.523C185.77 162.643 187.81 161.553 191.114 161.553ZM191.114 162.854C188.811 162.854 187.44 163.451 187.44 164.523C187.44 165.578 188.811 166.193 191.114 166.176C193.417 166.193 194.788 165.578 194.788 164.523C194.788 163.451 193.417 162.854 191.114 162.854ZM188.899 154.521C188.899 156.525 190.323 158.459 192.696 159.268L191.835 160.586C190.068 159.971 188.768 158.714 188.091 157.158C187.396 158.925 186.017 160.34 184.136 161.025L183.257 159.689C185.7 158.846 187.194 156.719 187.194 154.539V154.188H183.784V152.834H192.274V154.188H188.899V154.521ZM212.867 164.154V165.543H198.453V164.154H204.799V160.92H200.106V152.816H201.776V155.523H209.51V152.816H211.162V160.92H206.451V164.154H212.867ZM201.776 159.566H209.51V156.877H201.776V159.566ZM216.48 164.787L215.074 169.639H213.58L214.511 164.787H216.48ZM235.483 151.744V167.494H233.883V151.744H235.483ZM232.319 152.043V166.721H230.737V161.641H228.452C227.889 163.205 226.843 164.11 225.498 164.102C223.442 164.119 222.106 161.957 222.106 158.547C222.106 155.137 223.442 152.992 225.498 153.01C226.843 153.001 227.88 153.897 228.452 155.453H230.737V152.043H232.319ZM225.498 154.574C224.338 154.574 223.635 156.033 223.635 158.547C223.635 161.061 224.338 162.52 225.498 162.52C226.659 162.52 227.397 161.061 227.397 158.547C227.397 156.033 226.659 154.574 225.498 154.574ZM228.803 156.807C228.882 157.343 228.926 157.923 228.926 158.547C228.926 159.162 228.882 159.742 228.803 160.27H230.737V156.807H228.803ZM251.523 158.969V160.252H237.109V158.969H251.523ZM249.748 161.359V164.822H240.502V166.123H250.24V167.301H238.832V163.715H248.095V162.555H238.814V161.359H249.748ZM249.713 152.148V155.559H240.607V156.754H249.976V157.932H238.955V154.451H248.043V153.326H238.92V152.148H249.713ZM270.737 158.195V159.531H256.358V158.195H270.737ZM269.032 155.717V157.053H258.239V152.201H268.874V153.555H259.909V155.717H269.032ZM268.909 160.779V164.594H259.733V166H269.348V167.318H258.098V163.363H267.256V162.062H258.081V160.779H268.909ZM275.826 152.922C277.962 152.922 279.526 154.732 279.781 157.65H283.033V151.744H284.685V167.529H283.033V159.004H279.799C279.614 162.071 278.014 163.979 275.826 163.979C273.471 163.979 271.818 161.834 271.836 158.441C271.818 155.066 273.471 152.922 275.826 152.922ZM275.826 154.416C274.402 154.416 273.418 155.963 273.418 158.441C273.418 160.938 274.402 162.484 275.826 162.484C277.25 162.484 278.234 160.938 278.234 158.441C278.234 155.963 277.25 154.416 275.826 154.416ZM303.512 155.998V157.352H298.801V159.25H305.165V160.621H290.786V159.25H297.149V157.352H292.702V152.025H294.354V155.998H303.512ZM297.958 161.693C301.35 161.693 303.389 162.748 303.389 164.594C303.389 166.422 301.35 167.477 297.958 167.459C294.547 167.477 292.491 166.422 292.491 164.594C292.491 162.748 294.547 161.693 297.958 161.693ZM297.958 162.994C295.549 162.994 294.178 163.557 294.178 164.594C294.178 165.578 295.549 166.176 297.958 166.176C300.331 166.176 301.719 165.578 301.719 164.594C301.719 163.557 300.331 162.994 297.958 162.994ZM311.783 156.385C311.783 159.021 313.506 161.746 315.932 162.783L315.017 164.084C313.163 163.267 311.686 161.535 310.957 159.426C310.227 161.676 308.742 163.592 306.914 164.488L305.947 163.17C308.32 162.062 310.078 159.092 310.096 156.385V154.715H306.492V153.326H315.369V154.715H311.783V156.385ZM319.025 151.744V167.494H317.355V151.744H319.025ZM337.747 152.729V154.117C337.747 155.611 337.747 157.229 337.307 159.479H339.575V160.85H333.194V167.512H331.506V160.85H325.214V159.479H335.62C336.094 157.237 336.094 155.585 336.094 154.117V154.1H326.971V152.729H337.747ZM353.471 151.744V160.199H351.801V151.744H353.471ZM344.805 160.955V162.73H351.818V160.955H353.471V167.301H343.17V160.955H344.805ZM344.805 165.93H351.818V164.049H344.805V165.93ZM344.928 152.465C347.336 152.465 349.111 153.959 349.111 156.121C349.111 158.283 347.336 159.777 344.928 159.76C342.52 159.777 340.727 158.283 340.727 156.121C340.727 153.959 342.52 152.465 344.928 152.465ZM344.928 153.871C343.434 153.854 342.361 154.785 342.361 156.121C342.361 157.475 343.434 158.389 344.928 158.389C346.404 158.389 347.477 157.475 347.477 156.121C347.477 154.785 346.404 153.854 344.928 153.871ZM366.936 161.553C370.188 161.553 372.157 162.643 372.157 164.506C372.157 166.387 370.188 167.477 366.936 167.494C363.649 167.477 361.645 166.387 361.645 164.506C361.645 162.643 363.649 161.553 366.936 161.553ZM366.936 162.871C364.651 162.871 363.298 163.451 363.315 164.506C363.298 165.561 364.651 166.158 366.936 166.158C369.204 166.158 370.522 165.561 370.522 164.506C370.522 163.451 369.204 162.871 366.936 162.871ZM372.016 151.744V155.594H374.301V157.018H372.016V161.148H370.346V151.744H372.016ZM361.891 152.729V154.996H366.022V152.729H367.675V160.041H360.257V152.729H361.891ZM361.891 158.705H366.022V156.314H361.891V158.705ZM377.264 152.553V154.855H381.201V152.553H382.854V155.523H386.299V151.744H387.969V160.34H386.299V156.912H382.854V159.812H375.594V152.553H377.264ZM377.264 158.459H381.201V156.156H377.264V158.459ZM379.356 161.078V162.854H386.299V161.078H387.951V167.266H377.703V161.078H379.356ZM379.356 165.912H386.299V164.154H379.356V165.912ZM392.865 164.787L391.458 169.639H389.964L390.896 164.787H392.865ZM55.3809 185.385C55.3809 188.021 57.1035 190.746 59.5293 191.783L58.6152 193.084C56.7607 192.267 55.2842 190.535 54.5547 188.426C53.8252 190.676 52.3398 192.592 50.5117 193.488L49.5449 192.17C51.918 191.062 53.6758 188.092 53.6934 185.385V183.715H50.0898V182.326H58.9668V183.715H55.3809V185.385ZM62.623 180.744V196.494H60.9531V180.744H62.623ZM77.9076 190.852V196.494H76.2377V192.17H67.2377V190.852H77.9076ZM77.9076 180.744V190.025H76.2377V187.863H72.3529C71.6234 188.725 70.472 189.243 69.1361 189.234C66.763 189.252 65.0052 187.67 65.0052 185.42C65.0052 183.205 66.763 181.605 69.1361 181.623C70.472 181.614 71.6146 182.133 72.3529 182.994H76.2377V180.744H77.9076ZM69.1361 183.029C67.6595 183.029 66.6048 184.014 66.6048 185.42C66.6048 186.861 67.6595 187.828 69.1361 187.828C70.5599 187.828 71.6322 186.861 71.6322 185.42C71.6322 184.014 70.5599 183.029 69.1361 183.029ZM73.0912 186.492H76.2377V184.365H73.0912C73.1791 184.699 73.2318 185.051 73.2318 185.42C73.2318 185.798 73.1791 186.158 73.0912 186.492ZM93.0866 180.744V188.936H91.4343V187.055H87.989V188.355H80.7292V181.465H82.3991V183.592H86.3366V181.465H87.989V182.906H91.4343V180.744H93.0866ZM93.0866 189.639V193.506H84.4909V194.965H93.6491V196.301H82.821V192.258H91.4343V190.939H82.7859V189.639H93.0866ZM82.3991 187.02H86.3366V184.875H82.3991V187.02ZM87.989 185.771H91.4343V184.189H87.989V185.771ZM113.566 189.023V190.342H99.1694V189.023H113.566ZM111.738 191.713V196.494H110.033V193.049H100.804V191.713H111.738ZM111.914 186.404V187.688H101.05V181.148H111.808V182.467H102.738V183.75H111.404V185.016H102.738V186.404H111.914ZM119.991 183.1C119.991 185.314 121.415 187.283 123.805 188.057L122.891 189.357C121.16 188.733 119.886 187.521 119.2 185.947C118.514 187.749 117.143 189.146 115.245 189.832L114.348 188.496C116.862 187.635 118.321 185.543 118.339 183.17V181.623H119.991V183.1ZM127.532 180.744V190.043H125.862V185.314H122.54V183.943H125.862V180.744H127.532ZM122.259 190.482C125.563 190.482 127.585 191.572 127.585 193.488C127.585 195.387 125.563 196.477 122.259 196.459C118.954 196.477 116.915 195.387 116.932 193.488C116.915 191.572 118.954 190.482 122.259 190.482ZM122.259 191.783C119.956 191.783 118.585 192.398 118.585 193.488C118.585 194.543 119.956 195.141 122.259 195.141C124.561 195.141 125.932 194.543 125.932 193.488C125.932 192.398 124.561 191.783 122.259 191.783ZM132.428 193.787L131.022 198.639H129.527L130.459 193.787H132.428ZM150.974 180.744V188.883H149.286V180.744H150.974ZM150.974 189.604V193.506H142.202V195H151.518V196.336H140.567V192.293H149.321V190.922H140.515V189.604H150.974ZM147.124 181.781V183.1H145.612V186.826C146.377 186.773 147.133 186.703 147.845 186.615L147.915 187.828C144.768 188.303 141.095 188.408 138.335 188.408L138.141 187.072L140.058 187.055V183.1H138.563V181.781H147.124ZM141.657 187.02C142.431 186.993 143.222 186.967 144.013 186.914V183.1H141.657V187.02ZM167.489 193.137V194.525H153.074V193.137H156.52V189.023C155.228 188.312 154.446 187.178 154.446 185.771C154.446 183.293 156.871 181.658 160.246 181.658C163.639 181.658 166.065 183.293 166.065 185.771C166.065 187.16 165.309 188.276 164.043 188.988V193.137H167.489ZM160.246 182.994C157.768 182.994 156.063 184.066 156.063 185.771C156.063 187.459 157.768 188.566 160.246 188.566C162.707 188.566 164.448 187.459 164.448 185.771C164.448 184.066 162.707 182.994 160.246 182.994ZM158.172 193.137H162.356V189.621C161.714 189.788 161.002 189.867 160.246 189.867C159.508 189.867 158.805 189.788 158.172 189.639V193.137ZM180.646 180.762V185.824H182.931V187.213H180.646V192.539H178.976V180.762H180.646ZM177.675 182.59V183.943H168.289V182.59H172.156V180.744H173.826V182.59H177.675ZM172.982 184.699C175.25 184.699 176.796 185.877 176.796 187.67C176.796 189.463 175.25 190.623 172.982 190.623C170.697 190.623 169.15 189.463 169.15 187.67C169.15 185.877 170.697 184.699 172.982 184.699ZM172.982 185.982C171.646 185.982 170.75 186.633 170.767 187.67C170.75 188.689 171.646 189.322 172.982 189.322C174.318 189.322 175.214 188.689 175.232 187.67C175.214 186.633 174.318 185.982 172.982 185.982ZM181.314 194.807V196.16H170.662V191.607H172.332V194.807H181.314ZM200.932 180.744V190.676H199.35V186.281H197.522V190.131H195.957V181.043H197.522V184.91H199.35V180.744H200.932ZM195.377 182.537V183.855H187.414V182.537H190.596V180.867H192.248V182.537H195.377ZM191.405 184.594C193.409 184.594 194.815 185.666 194.815 187.301C194.815 188.936 193.409 190.008 191.405 190.008C189.436 190.008 188.03 188.936 188.03 187.301C188.03 185.666 189.436 184.594 191.405 184.594ZM191.405 185.824C190.297 185.824 189.524 186.404 189.524 187.301C189.524 188.197 190.297 188.795 191.405 188.795C192.547 188.795 193.303 188.197 193.303 187.301C193.303 186.404 192.547 185.824 191.405 185.824ZM195.659 190.904C198.998 190.904 201.002 191.906 201.02 193.699C201.002 195.457 198.998 196.477 195.659 196.459C192.319 196.477 190.315 195.457 190.332 193.699C190.315 191.906 192.319 190.904 195.659 190.904ZM195.659 192.188C193.321 192.188 191.967 192.715 191.985 193.699C191.967 194.648 193.321 195.193 195.659 195.176C198.014 195.193 199.332 194.648 199.35 193.699C199.332 192.715 198.014 192.188 195.659 192.188ZM215.83 180.744V190.113H214.16V186.123H211.224V184.752H214.16V180.744H215.83ZM210.556 190.553C213.861 190.553 215.883 191.643 215.883 193.523C215.883 195.404 213.861 196.477 210.556 196.494C207.252 196.477 205.213 195.404 205.23 193.523C205.213 191.643 207.252 190.553 210.556 190.553ZM210.556 191.854C208.254 191.854 206.883 192.451 206.883 193.523C206.883 194.578 208.254 195.193 210.556 195.176C212.859 195.193 214.23 194.578 214.23 193.523C214.23 192.451 212.859 191.854 210.556 191.854ZM208.341 183.521C208.341 185.525 209.765 187.459 212.138 188.268L211.277 189.586C209.51 188.971 208.21 187.714 207.533 186.158C206.839 187.925 205.459 189.34 203.578 190.025L202.699 188.689C205.142 187.846 206.636 185.719 206.636 183.539V183.188H203.226V181.834H211.716V183.188H208.341V183.521ZM227.52 183.117C227.52 184.91 228.961 186.686 231.299 187.389L230.508 188.707C228.706 188.153 227.388 186.984 226.711 185.525C225.991 187.151 224.602 188.47 222.756 189.076L221.93 187.758C224.303 186.967 225.85 185.016 225.85 183.1V182.854H222.422V181.5H230.913V182.854H227.52V183.117ZM235.043 180.744V188.848H233.391V185.525H230.455V184.172H233.391V180.744H235.043ZM235.043 189.568V193.506H226.448V195H235.606V196.318H224.778V192.24H233.391V190.904H224.743V189.568H235.043ZM242.523 185.807C242.523 188.232 244 190.799 246.355 191.924L245.406 193.189C243.692 192.381 242.4 190.737 241.732 188.812C241.038 190.896 239.667 192.636 237.865 193.471L236.933 192.188C239.324 191.098 240.888 188.408 240.888 185.807V184.77H237.408V183.434H240.871V181.061H242.558V183.434H245.986V184.77H242.523V185.807ZM249.396 180.744V187.09H251.928V188.496H249.396V196.494H247.726V180.744H249.396ZM270.737 188.145V189.516H256.358V188.145H270.737ZM269.067 185.42V186.773H258.151V181.307H268.961V182.678H259.803V185.42H269.067ZM263.53 190.746C266.922 190.746 268.961 191.783 268.961 193.611C268.961 195.439 266.922 196.477 263.53 196.459C260.12 196.477 258.063 195.439 258.063 193.611C258.063 191.783 260.12 190.746 263.53 190.746ZM263.53 192.029C261.122 192.047 259.75 192.609 259.75 193.611C259.75 194.613 261.122 195.176 263.53 195.176C265.903 195.176 267.291 194.613 267.291 193.611C267.291 192.609 265.903 192.047 263.53 192.029ZM278.726 181.008C282.277 181.008 284.351 181.957 284.351 183.715C284.351 185.473 282.277 186.439 278.726 186.439C275.176 186.439 273.101 185.473 273.101 183.715C273.101 181.957 275.176 181.008 278.726 181.008ZM278.726 182.238C276.213 182.238 274.824 182.783 274.842 183.715C274.824 184.682 276.213 185.191 278.726 185.191C281.24 185.191 282.629 184.682 282.629 183.715C282.629 182.783 281.24 182.238 278.726 182.238ZM285.916 187.406V188.742H271.555V187.406H285.916ZM284.105 189.955V193.646H274.93V195.053H284.545V196.336H273.295V192.434H282.453V191.203H273.277V189.955H284.105ZM297.887 190.641C301.297 190.641 303.442 191.713 303.46 193.559C303.442 195.387 301.297 196.477 297.887 196.459C294.512 196.477 292.35 195.387 292.35 193.559C292.35 191.713 294.512 190.641 297.887 190.641ZM297.887 191.906C295.497 191.906 294.003 192.521 294.02 193.559C294.003 194.578 295.497 195.176 297.887 195.176C300.295 195.176 301.79 194.578 301.807 193.559C301.79 192.521 300.295 191.906 297.887 191.906ZM303.336 181.518V182.836C303.336 184.102 303.336 185.402 302.897 187.02L301.262 186.844C301.684 185.235 301.684 184.075 301.684 182.854H292.473V181.518H303.336ZM305.129 187.986V189.34H290.803V187.986H296.551V185.033H298.186V187.986H305.129ZM320.379 189.639V191.01H316.723V196.494H315.035V191.01H311.273V196.494H309.551V191.01H305.965V189.639H320.379ZM313.137 181.342C316.459 181.342 318.744 182.695 318.744 184.822C318.744 186.914 316.459 188.25 313.137 188.232C309.797 188.25 307.529 186.914 307.529 184.822C307.529 182.695 309.797 181.342 313.137 181.342ZM313.137 182.678C310.799 182.695 309.234 183.504 309.252 184.822C309.234 186.105 310.799 186.914 313.137 186.914C315.475 186.914 317.039 186.105 317.039 184.822C317.039 183.504 315.475 182.695 313.137 182.678ZM333.554 180.744V184.699H335.839V186.105H333.554V189.92H331.884V180.744H333.554ZM325.134 190.57V192.1H331.884V190.57H333.554V196.301H323.482V190.57H325.134ZM325.134 194.965H331.884V193.4H325.134V194.965ZM330.583 182.291V183.627H321.197V182.291H325.064V180.604H326.734V182.291H330.583ZM325.89 184.277C328.158 184.277 329.704 185.35 329.704 187.037C329.704 188.707 328.158 189.814 325.89 189.797C323.587 189.814 322.058 188.707 322.058 187.037C322.058 185.35 323.587 184.277 325.89 184.277ZM325.89 185.525C324.554 185.508 323.658 186.123 323.675 187.037C323.658 187.969 324.554 188.566 325.89 188.566C327.226 188.566 328.122 187.969 328.14 187.037C328.122 186.123 327.226 185.508 325.89 185.525ZM349.454 180.744V196.494H347.784V180.744H349.454ZM338.995 182.273V191.045C341.289 191.027 343.706 190.843 346.237 190.324L346.465 191.73C343.671 192.293 341.139 192.486 338.661 192.486H337.342V182.273H338.995ZM363.842 180.744V186.844H366.373V188.215H363.842V196.529H362.172V180.744H363.842ZM359.605 182.256V183.609H353.91V191.221C356.556 191.212 358.542 191.098 360.783 190.693L360.994 192.1C358.533 192.539 356.441 192.627 353.506 192.609H352.24V182.256H359.605ZM368.562 195.123C367.876 195.123 367.296 194.561 367.314 193.875C367.296 193.189 367.876 192.627 368.562 192.627C369.23 192.627 369.81 193.189 369.81 193.875C369.81 194.561 369.23 195.123 368.562 195.123Z" fill="#111111"/>
<path d="M30.3086 245.195C27.2812 245.195 25.1328 243.555 25.0742 241.172H27.6328C27.7109 242.305 28.8438 243.047 30.3086 243.047C31.8711 243.047 32.9844 242.188 32.9844 240.938C32.9844 239.668 31.8906 238.75 30.0547 238.75H28.7852V236.797H30.0547C31.5586 236.797 32.6133 235.957 32.5938 234.727C32.6133 233.535 31.7148 232.734 30.3281 232.734C29 232.734 27.8477 233.477 27.8086 234.668H25.3672C25.4258 232.285 27.5742 230.664 30.3477 230.664C33.2188 230.664 35.0742 232.422 35.0547 234.59C35.0742 236.172 34.0195 237.324 32.4766 237.637V237.754C34.4688 238.027 35.6016 239.297 35.582 241.074C35.6016 243.457 33.375 245.195 30.3086 245.195ZM38.5414 245.156C37.7016 245.156 37.018 244.473 37.018 243.633C37.018 242.812 37.7016 242.129 38.5414 242.129C39.3422 242.129 40.0453 242.812 40.0453 243.633C40.0453 244.473 39.3422 245.156 38.5414 245.156Z" fill="#111111"/>
<path d="M63.0977 228.744V244.494H61.498V228.744H63.0977ZM59.8984 229.078V243.703H58.3164V235.688H55.873V234.316H58.3164V229.078H59.8984ZM54.3262 233.139C54.3262 235.828 55.416 238.518 57.6309 239.801L56.6289 241.031C55.126 240.135 54.0889 238.544 53.5527 236.637C52.9814 238.693 51.9092 240.442 50.3711 241.4L49.3516 240.152C51.584 238.799 52.7266 235.934 52.7266 233.139V231.873H49.8262V230.52H57.0332V231.873H54.3262V233.139ZM79.138 237.621V238.975H72.7396V244.477H71.1048V238.975H64.7767V237.621H79.138ZM77.7845 229.676V231.012H72.9154C72.9418 232.963 75.3675 234.703 78.347 235.107L77.7318 236.426C75.1478 236.021 72.9154 234.747 71.9662 232.945C70.9906 234.747 68.767 236.021 66.2181 236.426L65.5853 235.107C68.5296 234.703 70.9554 232.963 71.017 231.012H66.1127V229.676H77.7845ZM92.7351 236.004V237.34H87.9714V241.189H94.3874V242.561H79.9734V241.189H86.3191V237.34H81.7663V229.957H92.5945V231.311H83.4363V236.004H92.7351ZM112.248 228.744V244.529H110.578V228.744H112.248ZM103.828 229.922C106.165 229.922 107.888 232.066 107.888 235.441C107.888 238.834 106.165 240.979 103.828 240.979C101.455 240.979 99.7495 238.834 99.7495 235.441C99.7495 232.066 101.455 229.922 103.828 229.922ZM103.828 231.416C102.369 231.416 101.367 232.963 101.367 235.441C101.367 237.938 102.369 239.484 103.828 239.484C105.269 239.484 106.271 237.938 106.271 235.441C106.271 232.963 105.269 231.416 103.828 231.416ZM128.762 237.621V238.975H122.364V244.477H120.729V238.975H114.401V237.621H128.762ZM127.409 229.676V231.012H122.54C122.566 232.963 124.992 234.703 127.971 235.107L127.356 236.426C124.772 236.021 122.54 234.747 121.591 232.945C120.615 234.747 118.391 236.021 115.843 236.426L115.21 235.107C118.154 234.703 120.58 232.963 120.641 231.012H115.737V229.676H127.409ZM134.326 229.746C136.752 229.746 138.563 231.275 138.563 233.49C138.563 235.441 137.156 236.856 135.17 237.164V239.66C136.568 239.599 137.965 239.493 139.266 239.326L139.389 240.574C136.067 241.154 132.393 241.172 129.668 241.154L129.404 239.783C130.626 239.774 132.032 239.766 133.5 239.73V237.164C131.461 236.874 130.072 235.45 130.09 233.49C130.072 231.275 131.848 229.746 134.326 229.746ZM134.326 231.152C132.815 231.17 131.707 232.084 131.707 233.49C131.707 234.896 132.815 235.828 134.326 235.811C135.82 235.828 136.91 234.896 136.928 233.49C136.91 232.084 135.82 231.17 134.326 231.152ZM141.885 228.744V235.143H144.311V236.549H141.885V244.494H140.215V228.744H141.885ZM162.083 228.744V244.494H160.395V228.744H162.083ZM148.724 236.162C150.78 236.162 153.127 236.145 155.474 236.021C155.86 233.921 155.931 232.356 155.966 231.275H150.095V229.922H157.618V230.643C157.6 231.68 157.6 233.446 157.179 235.916C157.908 235.872 158.638 235.811 159.341 235.74L159.446 236.988C157.891 237.199 156.282 237.331 154.7 237.41V243.58H153.03V237.48C151.598 237.533 150.218 237.551 148.952 237.551L148.724 236.162ZM176.752 232.998V234.352H172.041V236.25H178.405V237.621H164.026V236.25H170.389V234.352H165.942V229.025H167.594V232.998H176.752ZM171.198 238.693C174.59 238.693 176.629 239.748 176.629 241.594C176.629 243.422 174.59 244.477 171.198 244.459C167.787 244.477 165.731 243.422 165.731 241.594C165.731 239.748 167.787 238.693 171.198 238.693ZM171.198 239.994C168.789 239.994 167.418 240.557 167.418 241.594C167.418 242.578 168.789 243.176 171.198 243.176C173.571 243.176 174.959 242.578 174.959 241.594C174.959 240.557 173.571 239.994 171.198 239.994ZM192.775 228.744V244.494H191.175V228.744H192.775ZM189.576 229.043V243.721H187.976V236.127H186.201C186.06 239.203 184.742 241.119 182.791 241.102C180.734 241.119 179.398 238.957 179.398 235.547C179.398 232.137 180.734 229.992 182.791 230.01C184.707 229.992 186.007 231.812 186.201 234.773H187.976V229.043H189.576ZM182.791 231.574C181.648 231.574 180.945 233.033 180.945 235.547C180.945 238.061 181.648 239.52 182.791 239.52C183.951 239.52 184.671 238.061 184.671 235.547C184.671 233.033 183.951 231.574 182.791 231.574ZM211.971 228.744V244.494H210.371V236.355H208.332V243.686H206.803V229.061H208.332V234.984H210.371V228.744H211.971ZM204.887 230.643V231.996H200.651V239.291C202.584 239.273 204.043 239.186 205.731 238.869L205.854 240.24C203.955 240.627 202.338 240.697 200.035 240.715H198.981V230.643H204.887ZM221.437 231.346V232.699H213.615V231.346H216.709V229.201H218.361V231.346H221.437ZM217.535 233.648C219.539 233.648 220.945 235.143 220.963 237.27C220.945 239.414 219.539 240.926 217.535 240.926C215.566 240.926 214.107 239.414 214.125 237.27C214.107 235.143 215.566 233.648 217.535 233.648ZM217.535 235.037C216.392 235.037 215.601 235.969 215.601 237.27C215.601 238.605 216.392 239.502 217.535 239.502C218.66 239.502 219.486 238.605 219.486 237.27C219.486 235.969 218.66 235.037 217.535 235.037ZM227.133 228.744V244.494H225.55V236.672H223.74V243.756H222.158V229.096H223.74V235.301H225.55V228.744H227.133ZM245.467 229.395V230.537C245.467 231.724 245.467 233.147 245.098 234.967H247.295V236.303H240.879V238.588C243.815 238.755 245.573 239.801 245.573 241.506C245.573 243.404 243.481 244.477 240.053 244.459C236.608 244.477 234.516 243.404 234.516 241.506C234.516 239.801 236.274 238.755 239.227 238.588V236.303H232.881V234.967H243.428C243.797 233.2 243.815 231.891 243.815 230.73H234.692V229.395H245.467ZM240.053 239.924C237.61 239.924 236.186 240.486 236.204 241.506C236.186 242.561 237.61 243.123 240.053 243.123C242.461 243.123 243.885 242.561 243.903 241.506C243.885 240.486 242.461 239.924 240.053 239.924ZM260.664 229.535V230.73C260.664 231.97 260.664 233.376 260.26 235.283H262.492V236.654H248.078V235.283H258.572C258.994 233.446 259.011 232.102 259.011 230.906H249.888V229.535H260.664ZM260.681 238.658V244.301H249.836V238.658H260.681ZM251.47 239.977V242.947H259.029V239.977H251.47ZM275.65 228.762V233.824H277.935V235.213H275.65V240.539H273.98V228.762H275.65ZM272.679 230.59V231.943H263.292V230.59H267.159V228.744H268.829V230.59H272.679ZM267.985 232.699C270.253 232.699 271.8 233.877 271.8 235.67C271.8 237.463 270.253 238.623 267.985 238.623C265.7 238.623 264.153 237.463 264.153 235.67C264.153 233.877 265.7 232.699 267.985 232.699ZM267.985 233.982C266.65 233.982 265.753 234.633 265.771 235.67C265.753 236.689 266.65 237.322 267.985 237.322C269.321 237.322 270.218 236.689 270.235 235.67C270.218 234.633 269.321 233.982 267.985 233.982ZM276.318 242.807V244.16H265.665V239.607H267.335V242.807H276.318ZM295.637 228.744V237.92H293.967V233.965H291.014V232.576H293.967V228.744H295.637ZM295.637 238.658V244.301H285.248V238.658H295.637ZM286.9 239.977V242.947H294.002V239.977H286.9ZM288.148 231.434C288.148 233.402 289.572 235.354 291.945 236.18L291.084 237.498C289.317 236.874 288.008 235.608 287.322 234.053C286.637 235.784 285.257 237.173 283.385 237.832L282.523 236.514C284.949 235.688 286.443 233.596 286.443 231.434V231.064H283.033V229.693H291.523V231.064H288.148V231.434ZM304.874 229.008C308.425 229.008 310.499 229.957 310.499 231.715C310.499 233.473 308.425 234.439 304.874 234.439C301.323 234.439 299.249 233.473 299.249 231.715C299.249 229.957 301.323 229.008 304.874 229.008ZM304.874 230.238C302.361 230.238 300.972 230.783 300.989 231.715C300.972 232.682 302.361 233.191 304.874 233.191C307.388 233.191 308.777 232.682 308.777 231.715C308.777 230.783 307.388 230.238 304.874 230.238ZM312.064 235.406V236.742H297.702V235.406H312.064ZM310.253 237.955V241.646H301.077V243.053H310.693V244.336H299.443V240.434H308.601V239.203H299.425V237.955H310.253ZM55.0645 262.385C55.0645 264.881 56.6992 267.658 59.0898 268.783L58.1406 270.084C56.374 269.231 54.9766 267.456 54.2734 265.391C53.5439 267.649 52.0674 269.592 50.2656 270.488L49.2812 269.17C51.6719 268.027 53.4121 265.057 53.4121 262.385V260.715H49.8613V259.326H58.4922V260.715H55.0645V262.385ZM61.8496 257.744V263.984H64.3809V265.391H61.8496V273.494H60.1797V257.744H61.8496ZM79.1732 266.639V268.01H75.517V273.494H73.8295V268.01H70.0677V273.494H68.3451V268.01H64.7591V266.639H79.1732ZM71.931 258.342C75.2533 258.342 77.5384 259.695 77.5384 261.822C77.5384 263.914 75.2533 265.25 71.931 265.232C68.5912 265.25 66.3236 263.914 66.3236 261.822C66.3236 259.695 68.5912 258.342 71.931 258.342ZM71.931 259.678C69.5931 259.695 68.0287 260.504 68.0463 261.822C68.0287 263.105 69.5931 263.914 71.931 263.914C74.2689 263.914 75.8334 263.105 75.8334 261.822C75.8334 260.504 74.2689 259.695 71.931 259.678ZM94.3698 265.725V267.078H79.9558V265.725H86.3366V264.406H81.8015V260.574H90.8894V259.344H81.7663V258.043H92.5593V261.805H83.4538V263.105H92.8757V264.406H87.989V265.725H94.3698ZM83.5241 267.799V269.17H90.9245V267.799H92.5769V273.301H81.8542V267.799H83.5241ZM83.5241 271.982H90.9245V270.453H83.5241V271.982ZM108.705 257.744V273.494H107.123V257.744H108.705ZM105.383 258.148V272.721H103.801V265.408H100.725C99.7843 267.236 98.2901 268.836 96.0665 270.137L95.1173 268.941C98.4571 266.955 100.066 264.31 100.356 261.066H95.8555V259.695H102.008C101.999 261.233 101.788 262.701 101.305 264.072H103.801V258.148H105.383ZM127.444 257.744V265.883H125.792V257.744H127.444ZM127.462 266.604V270.506H118.778V272.035H127.989V273.336H117.161V269.293H125.809V267.887H117.108V266.604H127.462ZM120.237 259.941C120.237 261.857 121.749 263.633 124.192 264.336L123.384 265.619C121.529 265.065 120.132 263.879 119.429 262.367C118.725 264.037 117.293 265.347 115.35 265.953L114.577 264.635C117.02 263.879 118.532 261.98 118.55 259.941H115.016V258.588H123.7V259.941H120.237ZM143.994 265.707V267.061H137.736V270.119H136.084V267.061H129.58V265.707H143.994ZM142.131 258.482V264.072H131.426V258.482H142.131ZM133.061 259.801V262.754H140.479V259.801H133.061ZM142.395 271.807V273.16H131.373V268.625H133.043V271.807H142.395ZM157.064 257.744V264.125H159.595V265.514H157.064V273.494H155.412V257.744H157.064ZM154.041 260.205V261.576H144.707V260.205H148.591V257.955H150.261V260.205H154.041ZM149.435 262.736C151.685 262.736 153.337 264.248 153.355 266.393C153.337 268.555 151.685 270.049 149.435 270.066C147.168 270.049 145.515 268.555 145.515 266.393C145.515 264.248 147.168 262.736 149.435 262.736ZM149.435 264.107C148.099 264.107 147.097 265.039 147.115 266.393C147.097 267.764 148.099 268.678 149.435 268.66C150.771 268.678 151.755 267.764 151.755 266.393C151.755 265.039 150.771 264.107 149.435 264.107ZM172.735 259.256V260.803C172.735 262.754 172.735 264.934 172.138 268.15L170.45 267.975C171.065 264.934 171.065 262.701 171.065 260.803V260.609H161.503V259.256H172.735ZM174.352 269.979V271.367H159.991V269.979H165.458V264.424H167.11V269.979H174.352ZM178.018 270.787L176.612 275.639H175.117L176.049 270.787H178.018ZM187.686 258.922C190.042 258.922 191.712 261.066 191.729 264.441C191.712 267.834 190.042 269.979 187.686 269.979C185.331 269.979 183.644 267.834 183.661 264.441C183.644 261.066 185.331 258.922 187.686 258.922ZM187.686 260.416C186.245 260.416 185.261 261.963 185.261 264.441C185.261 266.938 186.245 268.484 187.686 268.484C189.145 268.484 190.13 266.938 190.13 264.441C190.13 261.963 189.145 260.416 187.686 260.416ZM195.737 257.744V263.914H198.269V265.32H195.737V273.494H194.067V257.744H195.737ZM211.409 262.35V263.686H200.563V258.307H202.215V262.35H211.409ZM213.061 265.672V267.008H198.647V265.672H213.061ZM211.514 271.754V273.125H200.44V268.502H202.11V271.754H211.514ZM223.362 261.752C223.345 264.547 224.962 267.395 227.317 268.537L226.28 269.873C224.566 268.985 223.239 267.219 222.554 265.109C221.842 267.359 220.462 269.24 218.669 270.172L217.632 268.818C220.058 267.658 221.692 264.635 221.692 261.752V259.062H223.362V261.752ZM230.165 257.744V264.02H232.696V265.443H230.165V273.494H228.495V257.744H230.165ZM245.467 257.762V261.682H247.77V263.088H245.467V267.131H243.797V257.762H245.467ZM245.467 267.869V273.301H235.377V267.869H245.467ZM237.012 269.17V271.947H243.85V269.17H237.012ZM240.897 258.588V263.035H235.413V265.004C238.146 264.995 240.079 264.916 242.373 264.529L242.549 265.865C240.106 266.305 238.032 266.393 235.008 266.393H233.743V261.77H239.262V259.924H233.725V258.588H240.897ZM261.332 257.744V273.529H259.662V257.744H261.332ZM252.912 258.922C255.25 258.922 256.972 261.066 256.972 264.441C256.972 267.834 255.25 269.979 252.912 269.979C250.539 269.979 248.834 267.834 248.834 264.441C248.834 261.066 250.539 258.922 252.912 258.922ZM252.912 260.416C251.453 260.416 250.451 261.963 250.451 264.441C250.451 266.938 251.453 268.484 252.912 268.484C254.353 268.484 255.355 266.938 255.355 264.441C255.355 261.963 254.353 260.416 252.912 260.416ZM279.895 257.744V261.348H282.18V262.736H279.895V266.146H278.225V257.744H279.895ZM275.219 258.746V260.117H269.875V264.301C272.943 264.292 274.674 264.195 276.643 263.773L276.836 265.127C274.709 265.566 272.846 265.672 269.471 265.672H268.223V258.746H275.219ZM271.458 266.973V268.766H278.225V266.973H279.895V273.248H269.805V266.973H271.458ZM271.458 271.895H278.225V270.084H271.458V271.895ZM295.848 257.762V269.398H294.178V265.303H290.732V266.779H283.473V258.799H285.142V261.471H289.08V258.799H290.732V260.557H294.178V257.762H295.848ZM296.199 271.807V273.16H285.564V268.256H287.252V271.807H296.199ZM285.142 265.426H289.08V262.754H285.142V265.426ZM290.732 263.949H294.178V261.928H290.732V263.949ZM305.085 258.008C308.636 258.008 310.71 258.957 310.71 260.715C310.71 262.473 308.636 263.439 305.085 263.439C301.534 263.439 299.46 262.473 299.46 260.715C299.46 258.957 301.534 258.008 305.085 258.008ZM305.085 259.238C302.571 259.238 301.183 259.783 301.2 260.715C301.183 261.682 302.571 262.191 305.085 262.191C307.599 262.191 308.988 261.682 308.988 260.715C308.988 259.783 307.599 259.238 305.085 259.238ZM312.275 264.406V265.742H297.913V264.406H312.275ZM310.464 266.955V270.646H301.288V272.053H310.904V273.336H299.654V269.434H308.812V268.203H299.636V266.955H310.464ZM324.932 260.346V261.699H317.109V260.346H320.203V258.201H321.855V260.346H324.932ZM321.029 262.648C323.033 262.648 324.439 264.143 324.457 266.27C324.439 268.414 323.033 269.926 321.029 269.926C319.06 269.926 317.601 268.414 317.619 266.27C317.601 264.143 319.06 262.648 321.029 262.648ZM321.029 264.037C319.887 264.037 319.096 264.969 319.096 266.27C319.096 267.605 319.887 268.502 321.029 268.502C322.154 268.502 322.98 267.605 322.98 266.27C322.98 264.969 322.154 264.037 321.029 264.037ZM330.627 257.744V273.494H329.045V265.672H327.234V272.756H325.652V258.096H327.234V264.301H329.045V257.744H330.627ZM346.702 266.621V267.975H340.304V273.477H338.669V267.975H332.341V266.621H346.702ZM345.349 258.676V260.012H340.48C340.506 261.963 342.932 263.703 345.911 264.107L345.296 265.426C342.712 265.021 340.48 263.747 339.531 261.945C338.555 263.747 336.331 265.021 333.783 265.426L333.15 264.107C336.094 263.703 338.52 261.963 338.581 260.012H333.677V258.676H345.349ZM360.282 262.35V263.686H349.436V258.307H351.089V262.35H360.282ZM361.934 265.672V267.008H347.52V265.672H361.934ZM360.387 271.754V273.125H349.313V268.502H350.983V271.754H360.387ZM58.457 288.396V289.732H49.5977V288.396H53.2891V286.604H54.9414V288.396H58.457ZM54.0977 290.453C56.2246 290.453 57.7188 291.631 57.7363 293.389C57.7188 295.146 56.2246 296.307 54.0977 296.307C51.9531 296.307 50.4766 295.146 50.4766 293.389C50.4766 291.631 51.9531 290.453 54.0977 290.453ZM54.0977 291.719C52.8496 291.719 52.041 292.369 52.041 293.389C52.041 294.408 52.8496 295.041 54.0977 295.041C55.3281 295.041 56.1719 294.408 56.1895 293.389C56.1719 292.369 55.3281 291.719 54.0977 291.719ZM62.7109 286.744V296.887H61.041V294.865H58.4922V293.512H61.041V291.771H58.5098V290.418H61.041V286.744H62.7109ZM57.4727 297.045C60.7773 297.045 62.7988 298.029 62.7988 299.752C62.7988 301.457 60.7773 302.477 57.4727 302.459C54.1504 302.477 52.1289 301.457 52.1289 299.752C52.1289 298.029 54.1504 297.045 57.4727 297.045ZM57.4727 298.328C55.2051 298.328 53.8691 298.82 53.8691 299.752C53.8691 300.666 55.2051 301.193 57.4727 301.176C59.6875 301.193 61.0234 300.666 61.0234 299.752C61.0234 298.82 59.6875 298.328 57.4727 298.328ZM70.5072 289.012C70.4896 291.191 71.9838 293.178 74.4095 293.986L73.5658 295.305C71.7464 294.663 70.3754 293.38 69.6634 291.736C68.9603 293.503 67.5804 294.9 65.7084 295.568L64.8646 294.268C67.3255 293.389 68.8021 291.262 68.8021 289.012V287.5H70.5072V289.012ZM77.8373 296.957V302.494H76.1673V298.311H67.1673V296.957H77.8373ZM77.8373 286.744V296.201H76.1673V286.744H77.8373ZM87.1452 287.693C90.4499 287.693 92.9636 289.434 92.9636 292.088C92.9636 294.742 90.4499 296.5 87.1452 296.482C83.8405 296.5 81.3445 294.742 81.3445 292.088C81.3445 289.434 83.8405 287.693 87.1452 287.693ZM87.1452 289.047C84.737 289.029 82.9265 290.26 82.9441 292.088C82.9265 293.934 84.737 295.111 87.1452 295.111C89.5534 295.111 91.3464 293.934 91.3464 292.088C91.3464 290.26 89.5534 289.029 87.1452 289.047ZM94.3874 299.066V300.455H79.9734V299.066H94.3874ZM109.584 299.207V300.613H95.17V299.207H101.516V296.447H96.9278V291.438H106.174V289.223H96.8927V287.852H107.826V292.773H98.5802V295.076H108.195V296.447H103.168V299.207H109.584ZM120.237 290.031C120.237 292.07 121.749 293.986 124.175 294.76L123.313 296.061C121.503 295.463 120.132 294.224 119.429 292.65C118.717 294.364 117.319 295.718 115.438 296.377L114.577 295.059C117.02 294.232 118.532 292.193 118.55 290.031V289.346H115.016V287.992H123.7V289.346H120.237V290.031ZM127.462 286.762V298.258H125.792V286.762H127.462ZM127.936 300.807V302.16H117.161V297.168H118.848V300.807H127.936ZM143.027 286.744V296.676H141.445V292.281H139.617V296.131H138.053V287.043H139.617V290.91H141.445V286.744H143.027ZM137.473 288.537V289.855H129.51V288.537H132.692V286.867H134.344V288.537H137.473ZM133.5 290.594C135.504 290.594 136.91 291.666 136.91 293.301C136.91 294.936 135.504 296.008 133.5 296.008C131.531 296.008 130.125 294.936 130.125 293.301C130.125 291.666 131.531 290.594 133.5 290.594ZM133.5 291.824C132.393 291.824 131.619 292.404 131.619 293.301C131.619 294.197 132.393 294.795 133.5 294.795C134.643 294.795 135.399 294.197 135.399 293.301C135.399 292.404 134.643 291.824 133.5 291.824ZM137.754 296.904C141.094 296.904 143.098 297.906 143.115 299.699C143.098 301.457 141.094 302.477 137.754 302.459C134.414 302.477 132.41 301.457 132.428 299.699C132.41 297.906 134.414 296.904 137.754 296.904ZM137.754 298.188C135.416 298.188 134.063 298.715 134.08 299.699C134.063 300.648 135.416 301.193 137.754 301.176C140.11 301.193 141.428 300.648 141.445 299.699C141.428 298.715 140.11 298.188 137.754 298.188ZM157.169 286.744V290.699H159.455V292.105H157.169V295.92H155.5V286.744H157.169ZM148.75 296.57V298.1H155.5V296.57H157.169V302.301H147.097V296.57H148.75ZM148.75 300.965H155.5V299.4H148.75V300.965ZM154.199 288.291V289.627H144.812V288.291H148.679V286.604H150.349V288.291H154.199ZM149.505 290.277C151.773 290.277 153.32 291.35 153.32 293.037C153.32 294.707 151.773 295.814 149.505 295.797C147.203 295.814 145.673 294.707 145.673 293.037C145.673 291.35 147.203 290.277 149.505 290.277ZM149.505 291.525C148.169 291.508 147.273 292.123 147.291 293.037C147.273 293.969 148.169 294.566 149.505 294.566C150.841 294.566 151.738 293.969 151.755 293.037C151.738 292.123 150.841 291.508 149.505 291.525ZM173.069 286.744V302.494H171.399V286.744H173.069ZM162.61 288.273V297.045C164.904 297.027 167.321 296.843 169.852 296.324L170.081 297.73C167.286 298.293 164.755 298.486 162.276 298.486H160.958V288.273H162.61ZM187.457 286.744V292.844H189.989V294.215H187.457V302.529H185.787V286.744H187.457ZM183.221 288.256V289.609H177.526V297.221C180.171 297.212 182.157 297.098 184.399 296.693L184.61 298.1C182.149 298.539 180.057 298.627 177.121 298.609H175.856V288.256H183.221ZM192.177 301.123C191.492 301.123 190.912 300.561 190.929 299.875C190.912 299.189 191.492 298.627 192.177 298.627C192.845 298.627 193.425 299.189 193.425 299.875C193.425 300.561 192.845 301.123 192.177 301.123Z" fill="#111111"/>
<path d="M24.918 348.363V346.332L31.0312 336.859H34.1953V346.273H36.0508V348.363H34.1953V351H31.7734V348.363H24.918ZM27.5156 346.273H31.8125V339.75H31.6562L27.5156 346.176V346.273ZM38.8344 351.156C37.9945 351.156 37.3109 350.473 37.3109 349.633C37.3109 348.812 37.9945 348.129 38.8344 348.129C39.6352 348.129 40.3383 348.812 40.3383 349.633C40.3383 350.473 39.6352 351.156 38.8344 351.156Z" fill="#111111"/>
<path d="M61.9551 334.744V338.629H64.2402V340.035H61.9551V343.955H60.2852V334.744H61.9551ZM57.5957 335.711C57.5957 339.771 54.8535 342.602 50.1777 343.814L49.4922 342.531C53.2715 341.547 55.5127 339.552 55.8027 337.064H50.248V335.711H57.5957ZM61.9551 344.641V350.494H60.2852V345.994H51.5488V344.641H61.9551ZM70.2611 339.385C70.2611 341.881 71.8959 344.658 74.2865 345.783L73.3373 347.084C71.5707 346.231 70.1732 344.456 69.4701 342.391C68.7406 344.649 67.264 346.592 65.4623 347.488L64.4779 346.17C66.8685 345.027 68.6088 342.057 68.6088 339.385V337.715H65.058V336.326H73.6888V337.715H70.2611V339.385ZM77.0463 334.744V340.984H79.5775V342.391H77.0463V350.494H75.3763V334.744H77.0463ZM90.4942 335.482V336.062C90.4942 336.959 90.4942 338.611 89.9317 340.861H94.5548C94.9766 339.112 95.0645 337.803 95.0821 336.836H91.6192V335.482H96.6993V336.203C96.6993 337.196 96.6993 338.743 96.2423 340.861H98.4044V342.215H91.9708V344.693H96.5762V350.283H85.7833V344.693H90.336V342.215H84.0079V340.861H88.2442C88.71 339.104 88.8243 337.776 88.8595 336.836H85.3614V335.482H90.4942ZM87.418 346.012V348.947H94.9239V346.012H87.418ZM113.566 342.285V343.674H107.185V350.494H105.515V343.674H99.2045V342.285H103.142C103.748 340.018 103.854 338.321 103.88 337.152H100.347V335.799H105.515V336.449C105.515 337.53 105.515 339.49 104.83 342.285H109.734C110.217 340.018 110.288 338.339 110.296 337.152H106.658V335.799H111.949V336.625C111.949 337.768 111.949 339.648 111.421 342.285H113.566ZM127.145 339.35V340.686H116.3V335.307H117.952V339.35H127.145ZM128.798 342.672V344.008H114.384V342.672H128.798ZM127.251 348.754V350.125H116.177V345.502H117.846V348.754H127.251ZM146.359 338.998V340.352H141.648V342.25H148.011V343.621H133.632V342.25H139.996V340.352H135.548V335.025H137.201V338.998H146.359ZM140.804 344.693C144.197 344.693 146.236 345.748 146.236 347.594C146.236 349.422 144.197 350.477 140.804 350.459C137.394 350.477 135.337 349.422 135.337 347.594C135.337 345.748 137.394 344.693 140.804 344.693ZM140.804 345.994C138.396 345.994 137.025 346.557 137.025 347.594C137.025 348.578 138.396 349.176 140.804 349.176C143.177 349.176 144.566 348.578 144.566 347.594C144.566 346.557 143.177 345.994 140.804 345.994ZM154.331 337.645C154.331 339.648 155.72 341.477 158.11 342.232L157.319 343.533C155.526 342.962 154.217 341.775 153.522 340.281C152.837 342.004 151.457 343.366 149.567 344.025L148.706 342.689C151.167 341.881 152.643 339.842 152.661 337.662V337.223H149.198V335.869H157.724V337.223H154.331V337.645ZM161.204 334.744V338.646H163.489V340.018H161.204V344.201H159.534V334.744H161.204ZM156.124 344.588C159.376 344.588 161.345 345.66 161.345 347.506C161.345 349.369 159.376 350.477 156.124 350.459C152.837 350.477 150.833 349.369 150.833 347.506C150.833 345.66 152.837 344.588 156.124 344.588ZM156.124 345.906C153.839 345.906 152.485 346.486 152.503 347.506C152.485 348.561 153.839 349.141 156.124 349.141C158.391 349.141 159.71 348.561 159.71 347.506C159.71 346.486 158.391 345.906 156.124 345.906ZM169.158 335.869C171.655 335.852 173.43 337.398 173.448 339.613C173.43 341.828 171.655 343.375 169.158 343.375C166.68 343.375 164.852 341.828 164.869 339.613C164.852 337.398 166.68 335.852 169.158 335.869ZM169.158 337.311C167.629 337.311 166.504 338.225 166.522 339.613C166.504 341.002 167.629 341.916 169.158 341.916C170.688 341.916 171.813 341.002 171.813 339.613C171.813 338.225 170.688 337.311 169.158 337.311ZM177.051 334.744V350.529H175.381V334.744H177.051ZM164.114 345.748C166.979 345.748 170.951 345.713 174.397 345.221L174.52 346.434C170.951 347.119 167.137 347.137 164.324 347.137L164.114 345.748ZM197.671 347.137V348.525H183.257V347.137H189.602V343.498H184.909V336.01H195.948V343.498H191.255V347.137H197.671ZM186.526 337.346V342.18H194.313V337.346H186.526ZM201.881 344.184V345.854H209.282V344.184H210.951V350.301H200.229V344.184H201.881ZM201.881 348.965H209.282V347.154H201.881V348.965ZM212.815 341.811V343.199H198.453V341.811H212.815ZM206.487 335.588C206.487 337.398 209 339.156 212.024 339.525L211.426 340.844C208.868 340.483 206.645 339.279 205.643 337.609C204.615 339.288 202.382 340.483 199.86 340.844L199.227 339.525C202.285 339.139 204.782 337.451 204.782 335.588V334.92H206.487V335.588ZM220.822 335.008C224.373 335.008 226.447 335.957 226.447 337.715C226.447 339.473 224.373 340.439 220.822 340.439C217.271 340.439 215.197 339.473 215.197 337.715C215.197 335.957 217.271 335.008 220.822 335.008ZM220.822 336.238C218.308 336.238 216.92 336.783 216.937 337.715C216.92 338.682 218.308 339.191 220.822 339.191C223.336 339.191 224.724 338.682 224.724 337.715C224.724 336.783 223.336 336.238 220.822 336.238ZM228.011 341.406V342.742H213.65V341.406H228.011ZM226.201 343.955V347.646H217.025V349.053H226.64V350.336H215.39V346.434H224.549V345.203H215.373V343.955H226.201ZM245.151 334.744V341.02H247.594V342.408H245.151V350.477H243.481V334.744H245.151ZM241.038 336.396C241.02 340.949 239.016 345.01 233.83 347.576L232.899 346.275C236.845 344.307 238.99 341.459 239.332 337.785H233.69V336.396H241.038ZM253.51 337.258C253.51 339.332 254.951 341.248 257.306 342.021L256.41 343.34C254.687 342.733 253.395 341.503 252.719 339.947C252.024 341.714 250.688 343.094 248.851 343.779L247.955 342.443C250.416 341.564 251.84 339.473 251.857 337.117V335.57H253.51V337.258ZM260.453 334.744V338.699H262.738V340.105H260.453V344.254H258.783V334.744H260.453ZM255.373 344.623C258.607 344.623 260.594 345.695 260.594 347.541C260.594 349.404 258.607 350.477 255.373 350.459C252.103 350.477 250.082 349.404 250.082 347.541C250.082 345.695 252.103 344.623 255.373 344.623ZM255.373 345.941C253.088 345.941 251.734 346.539 251.752 347.541C251.734 348.578 253.088 349.141 255.373 349.158C257.64 349.141 258.959 348.578 258.959 347.541C258.959 346.539 257.64 345.941 255.373 345.941ZM270.446 335.693C273.751 335.693 276.265 337.434 276.265 340.088C276.265 342.742 273.751 344.5 270.446 344.482C267.142 344.5 264.646 342.742 264.646 340.088C264.646 337.434 267.142 335.693 270.446 335.693ZM270.446 337.047C268.038 337.029 266.228 338.26 266.245 340.088C266.228 341.934 268.038 343.111 270.446 343.111C272.855 343.111 274.648 341.934 274.648 340.088C274.648 338.26 272.855 337.029 270.446 337.047ZM277.689 347.066V348.455H263.275V347.066H277.689ZM292.885 347.207V348.613H278.471V347.207H284.817V344.447H280.229V339.438H289.475V337.223H280.194V335.852H291.127V340.773H281.881V343.076H291.497V344.447H286.469V347.207H292.885ZM311.238 334.744V350.494H309.655V334.744H311.238ZM308.021 335.148V349.721H306.439V344.359H303.749V342.988H306.439V340.422H304.013C303.248 343.067 301.57 345.361 298.599 347.137L297.614 345.941C300.954 343.955 302.563 341.31 302.853 338.066H298.388V336.695H304.505C304.505 337.504 304.444 338.286 304.312 339.051H306.439V335.148H308.021ZM322.795 336.098V337.346H313.479V336.098H317.294V334.639H318.963V336.098H322.795ZM318.137 337.873C320.422 337.855 321.969 338.77 321.969 340.229C321.969 341.485 320.792 342.329 318.963 342.514V343.463C320.361 343.393 321.767 343.287 323.077 343.111L323.2 344.271C319.79 344.834 316.028 344.887 313.198 344.887L312.969 343.586C314.261 343.586 315.755 343.577 317.294 343.533V342.514C315.465 342.329 314.305 341.485 314.323 340.229C314.305 338.77 315.835 337.855 318.137 337.873ZM318.137 339.016C316.784 338.998 315.905 339.455 315.905 340.229C315.905 340.949 316.784 341.406 318.137 341.406C319.473 341.406 320.37 340.949 320.37 340.229C320.37 339.455 319.473 338.998 318.137 339.016ZM325.96 334.779V345.326H324.29V334.779H325.96ZM325.96 346.029V350.494H324.29V347.33H315.237V346.029H325.96ZM335.883 337.346V338.699H328.06V337.346H331.154V335.201H332.807V337.346H335.883ZM331.98 339.648C333.984 339.648 335.391 341.143 335.408 343.27C335.391 345.414 333.984 346.926 331.98 346.926C330.012 346.926 328.553 345.414 328.57 343.27C328.553 341.143 330.012 339.648 331.98 339.648ZM331.98 341.037C330.838 341.037 330.047 341.969 330.047 343.27C330.047 344.605 330.838 345.502 331.98 345.502C333.105 345.502 333.932 344.605 333.932 343.27C333.932 341.969 333.105 341.037 331.98 341.037ZM341.578 334.744V350.494H339.996V342.672H338.185V349.756H336.603V335.096H338.185V341.301H339.996V334.744H341.578ZM357.706 347.154V348.543H343.292V347.154H349.638V343.92H344.945V335.816H346.615V338.523H354.349V335.816H356.001V343.92H351.29V347.154H357.706ZM346.615 342.566H354.349V339.877H346.615V342.566ZM371.233 336.256V337.803C371.233 339.754 371.233 341.934 370.635 345.15L368.948 344.975C369.563 341.934 369.563 339.701 369.563 337.803V337.609H360.001V336.256H371.233ZM372.85 346.979V348.367H358.489V346.979H363.956V341.424H365.608V346.979H372.85ZM376.516 347.787L375.109 352.639H373.615L374.547 347.787H376.516ZM62.623 363.744V379.529H60.9531V363.744H62.623ZM54.2031 364.922C56.541 364.922 58.2637 367.066 58.2637 370.441C58.2637 373.834 56.541 375.979 54.2031 375.979C51.8301 375.979 50.125 373.834 50.125 370.441C50.125 367.066 51.8301 364.922 54.2031 364.922ZM54.2031 366.416C52.7441 366.416 51.7422 367.963 51.7422 370.441C51.7422 372.938 52.7441 374.484 54.2031 374.484C55.6445 374.484 56.6465 372.938 56.6465 370.441C56.6465 367.963 55.6445 366.416 54.2031 366.416ZM79.1732 370.969V372.252H64.7591V370.969H79.1732ZM77.3978 373.359V376.822H68.1517V378.123H77.89V379.301H66.4818V375.715H75.7455V374.555H66.4642V373.359H77.3978ZM77.3627 364.148V367.559H68.2572V368.754H77.6263V369.932H66.6048V366.451H75.6927V365.326H66.5697V364.148H77.3627ZM95.144 373.641C98.5541 373.641 100.699 374.713 100.716 376.559C100.699 378.387 98.5541 379.477 95.144 379.459C91.769 379.477 89.6069 378.387 89.6069 376.559C89.6069 374.713 91.769 373.641 95.144 373.641ZM95.144 374.906C92.7534 374.906 91.2592 375.521 91.2768 376.559C91.2592 377.578 92.7534 378.176 95.144 378.176C97.5522 378.176 99.0463 377.578 99.0639 376.559C99.0463 375.521 97.5522 374.906 95.144 374.906ZM100.593 364.518V365.836C100.593 367.102 100.593 368.402 100.154 370.02L98.519 369.844C98.9409 368.235 98.9409 367.075 98.9409 365.854H89.7299V364.518H100.593ZM102.386 370.986V372.34H88.06V370.986H93.808V368.033H95.4428V370.986H102.386ZM117.636 372.639V374.01H113.979V379.494H112.292V374.01H108.53V379.494H106.807V374.01H103.221V372.639H117.636ZM110.393 364.342C113.716 364.342 116.001 365.695 116.001 367.822C116.001 369.914 113.716 371.25 110.393 371.232C107.054 371.25 104.786 369.914 104.786 367.822C104.786 365.695 107.054 364.342 110.393 364.342ZM110.393 365.678C108.055 365.695 106.491 366.504 106.509 367.822C106.491 369.105 108.055 369.914 110.393 369.914C112.731 369.914 114.296 369.105 114.296 367.822C114.296 366.504 112.731 365.695 110.393 365.678ZM130.811 363.744V367.699H133.096V369.105H130.811V372.92H129.141V363.744H130.811ZM122.391 373.57V375.1H129.141V373.57H130.811V379.301H120.738V373.57H122.391ZM122.391 377.965H129.141V376.4H122.391V377.965ZM127.84 365.291V366.627H118.453V365.291H122.32V363.604H123.99V365.291H127.84ZM123.147 367.277C125.414 367.277 126.961 368.35 126.961 370.037C126.961 371.707 125.414 372.814 123.147 372.797C120.844 372.814 119.315 371.707 119.315 370.037C119.315 368.35 120.844 367.277 123.147 367.277ZM123.147 368.525C121.811 368.508 120.914 369.123 120.932 370.037C120.914 370.969 121.811 371.566 123.147 371.566C124.483 371.566 125.379 370.969 125.397 370.037C125.379 369.123 124.483 368.508 123.147 368.525ZM146.71 363.744V379.494H145.041V363.744H146.71ZM136.251 365.273V374.045C138.545 374.027 140.962 373.843 143.494 373.324L143.722 374.73C140.927 375.293 138.396 375.486 135.918 375.486H134.599V365.273H136.251ZM161.099 363.744V369.844H163.63V371.215H161.099V379.529H159.429V363.744H161.099ZM156.862 365.256V366.609H151.167V374.221C153.812 374.212 155.799 374.098 158.04 373.693L158.251 375.1C155.79 375.539 153.698 375.627 150.763 375.609H149.497V365.256H156.862ZM165.819 378.123C165.133 378.123 164.553 377.561 164.571 376.875C164.553 376.189 165.133 375.627 165.819 375.627C166.487 375.627 167.067 376.189 167.067 376.875C167.067 377.561 166.487 378.123 165.819 378.123Z" fill="#111111"/>
<path d="M30.1914 428.195C27.3594 428.195 25.2891 426.516 25.2109 424.172H27.6914C27.7695 425.324 28.8438 426.145 30.1914 426.145C31.7734 426.145 32.9062 424.992 32.9062 423.43C32.9062 421.809 31.7344 420.656 30.1133 420.656C29.0195 420.637 28.2188 421.027 27.7695 421.867H25.4062L26.2656 413.859H34.625V415.988H28.3555L27.9258 419.738H28.0625C28.6094 419.113 29.6445 418.664 30.7969 418.664C33.4336 418.664 35.3672 420.637 35.3672 423.352C35.3672 426.184 33.2383 428.195 30.1914 428.195ZM38.2094 428.156C37.3695 428.156 36.6859 427.473 36.6859 426.633C36.6859 425.812 37.3695 425.129 38.2094 425.129C39.0102 425.129 39.7133 425.812 39.7133 426.633C39.7133 427.473 39.0102 428.156 38.2094 428.156Z" fill="#111111"/>
<path d="M62.9941 424.137V425.525H48.5801V424.137H54.9258V420.498H50.2324V413.01H61.2715V420.498H56.5781V424.137H62.9941ZM51.8496 414.346V419.18H59.6367V414.346H51.8496ZM76.8373 411.762V420.727H75.1673V411.762H76.8373ZM76.8373 421.518V427.301H66.4838V421.518H76.8373ZM68.1361 422.854V425.947H75.2025V422.854H68.1361ZM68.2943 412.553C70.7025 412.553 72.4779 414.064 72.4779 416.279C72.4779 418.441 70.7025 419.971 68.2943 419.971C65.8861 419.971 64.0931 418.441 64.0931 416.279C64.0931 414.064 65.8861 412.553 68.2943 412.553ZM68.2943 413.959C66.8002 413.959 65.7279 414.873 65.7279 416.279C65.7279 417.633 66.8002 418.564 68.2943 418.564C69.7709 418.564 70.8431 417.633 70.8431 416.279C70.8431 414.873 69.7709 413.959 68.2943 413.959ZM84.1062 412.869C86.6023 412.852 88.3777 414.398 88.3952 416.613C88.3777 418.828 86.6023 420.375 84.1062 420.375C81.6277 420.375 79.7995 418.828 79.8171 416.613C79.7995 414.398 81.6277 412.852 84.1062 412.869ZM84.1062 414.311C82.5769 414.311 81.4519 415.225 81.4695 416.613C81.4519 418.002 82.5769 418.916 84.1062 418.916C85.6355 418.916 86.7605 418.002 86.7605 416.613C86.7605 415.225 85.6355 414.311 84.1062 414.311ZM91.9988 411.744V427.529H90.3288V411.744H91.9988ZM79.0613 422.748C81.9265 422.748 85.8991 422.713 89.3445 422.221L89.4675 423.434C85.8991 424.119 82.0847 424.137 79.2722 424.137L79.0613 422.748ZM106.167 413.309V423.539H98.8022V413.309H106.167ZM100.437 414.627V422.186H104.515V414.627H100.437ZM110.474 411.744V417.914H113.005V419.32H110.474V427.494H108.804V411.744H110.474ZM119.202 416.385C119.202 419.021 120.925 421.746 123.35 422.783L122.436 424.084C120.582 423.267 119.105 421.535 118.376 419.426C117.646 421.676 116.161 423.592 114.333 424.488L113.366 423.17C115.739 422.062 117.497 419.092 117.514 416.385V414.715H113.911V413.326H122.788V414.715H119.202V416.385ZM126.444 411.744V427.494H124.774V411.744H126.444ZM136.578 412.904V419.988H129.213V412.904H136.578ZM130.848 414.223V418.652H134.944V414.223H130.848ZM140.973 411.744V415.734H143.258V417.123H140.973V421.078H139.303V411.744H140.973ZM140.973 421.869V427.512H139.303V423.205H130.567V421.869H140.973ZM157.347 411.744V427.494H155.748V411.744H157.347ZM154.148 412.043V426.721H152.548V419.127H150.773C150.632 422.203 149.314 424.119 147.363 424.102C145.306 424.119 143.97 421.957 143.97 418.547C143.97 415.137 145.306 412.992 147.363 413.01C149.279 412.992 150.58 414.812 150.773 417.773H152.548V412.043H154.148ZM147.363 414.574C146.22 414.574 145.517 416.033 145.517 418.547C145.517 421.061 146.22 422.52 147.363 422.52C148.523 422.52 149.244 421.061 149.244 418.547C149.244 416.033 148.523 414.574 147.363 414.574ZM171.735 416.35V417.686H160.89V412.307H162.542V416.35H171.735ZM173.388 419.672V421.008H158.974V419.672H173.388ZM171.841 425.754V427.125H160.766V422.502H162.436V425.754H171.841ZM190.597 411.744V415.629H192.882V417.035H190.597V420.955H188.927V411.744H190.597ZM186.238 412.711C186.238 416.771 183.496 419.602 178.82 420.814L178.134 419.531C181.914 418.547 184.155 416.552 184.445 414.064H178.89V412.711H186.238ZM190.597 421.641V427.494H188.927V422.994H180.191V421.641H190.597ZM198.903 416.385C198.903 418.881 200.538 421.658 202.929 422.783L201.979 424.084C200.213 423.231 198.815 421.456 198.112 419.391C197.383 421.649 195.906 423.592 194.104 424.488L193.12 423.17C195.511 422.027 197.251 419.057 197.251 416.385V414.715H193.7V413.326H202.331V414.715H198.903V416.385ZM205.688 411.744V417.984H208.22V419.391H205.688V427.494H204.019V411.744H205.688ZM213.748 412.869C216.244 412.852 218.02 414.398 218.037 416.613C218.02 418.828 216.244 420.375 213.748 420.375C211.27 420.375 209.442 418.828 209.459 416.613C209.442 414.398 211.27 412.852 213.748 412.869ZM213.748 414.311C212.219 414.311 211.094 415.225 211.112 416.613C211.094 418.002 212.219 418.916 213.748 418.916C215.278 418.916 216.403 418.002 216.403 416.613C216.403 415.225 215.278 414.311 213.748 414.311ZM221.641 411.744V427.529H219.971V411.744H221.641ZM208.703 422.748C211.569 422.748 215.541 422.713 218.987 422.221L219.11 423.434C215.541 424.119 211.727 424.137 208.914 424.137L208.703 422.748ZM240.38 412.395V417.791H235.845V419.619H242.208V420.973H227.847V419.619H234.192V417.791H229.675V412.395H240.38ZM231.31 413.713V416.455H238.728V413.713H231.31ZM240.45 422.467V427.494H238.763V423.785H229.446V422.467H240.45ZM257.457 424.26V425.631H243.043V424.26H246.911V420.762H244.309V419.408H246.664V414.504H244.274V413.133H256.139V414.504H253.731V419.408H256.086V420.762H253.502V424.26H257.457ZM248.317 419.408H252.096V414.504H248.317V419.408ZM248.58 424.26H251.832V420.762H248.58V424.26ZM262.969 412.746C265.394 412.746 267.205 414.275 267.205 416.49C267.205 418.441 265.799 419.856 263.812 420.164V422.66C265.21 422.599 266.607 422.493 267.908 422.326L268.031 423.574C264.709 424.154 261.035 424.172 258.31 424.154L258.047 422.783C259.268 422.774 260.675 422.766 262.142 422.73V420.164C260.103 419.874 258.715 418.45 258.732 416.49C258.715 414.275 260.49 412.746 262.969 412.746ZM262.969 414.152C261.457 414.17 260.349 415.084 260.349 416.49C260.349 417.896 261.457 418.828 262.969 418.811C264.463 418.828 265.553 417.896 265.57 416.49C265.553 415.084 264.463 414.17 262.969 414.152ZM270.527 411.744V418.143H272.953V419.549H270.527V427.494H268.857V411.744H270.527ZM291.006 411.744V427.494H289.424V411.744H291.006ZM287.79 412.148V426.721H286.208V421.359H283.518V419.988H286.208V417.422H283.782C283.017 420.067 281.338 422.361 278.368 424.137L277.383 422.941C280.723 420.955 282.332 418.31 282.622 415.066H278.157V413.695H284.274C284.274 414.504 284.212 415.286 284.081 416.051H286.208V412.148H287.79ZM302.564 413.098V414.346H293.248V413.098H297.062V411.639H298.732V413.098H302.564ZM297.906 414.873C300.191 414.855 301.738 415.77 301.738 417.229C301.738 418.485 300.56 419.329 298.732 419.514V420.463C300.13 420.393 301.536 420.287 302.846 420.111L302.969 421.271C299.558 421.834 295.797 421.887 292.967 421.887L292.738 420.586C294.03 420.586 295.524 420.577 297.062 420.533V419.514C295.234 419.329 294.074 418.485 294.092 417.229C294.074 415.77 295.603 414.855 297.906 414.873ZM297.906 416.016C296.553 415.998 295.674 416.455 295.674 417.229C295.674 417.949 296.553 418.406 297.906 418.406C299.242 418.406 300.139 417.949 300.139 417.229C300.139 416.455 299.242 415.998 297.906 416.016ZM305.728 411.779V422.326H304.058V411.779H305.728ZM305.728 423.029V427.494H304.058V424.33H295.006V423.029H305.728ZM315.036 412.008C318.587 412.008 320.661 412.957 320.661 414.715C320.661 416.473 318.587 417.439 315.036 417.439C311.486 417.439 309.411 416.473 309.411 414.715C309.411 412.957 311.486 412.008 315.036 412.008ZM315.036 413.238C312.523 413.238 311.134 413.783 311.152 414.715C311.134 415.682 312.523 416.191 315.036 416.191C317.55 416.191 318.939 415.682 318.939 414.715C318.939 413.783 317.55 413.238 315.036 413.238ZM322.226 418.406V419.742H307.864V418.406H322.226ZM320.415 420.955V424.646H311.239V426.053H320.855V427.336H309.605V423.434H318.763V422.203H309.587V420.955H320.415ZM341.457 419.303V420.639H327.096V419.303H341.457ZM334.267 421.834C337.66 421.816 339.699 422.836 339.699 424.664C339.699 426.492 337.66 427.494 334.267 427.494C330.84 427.494 328.801 426.492 328.801 424.664C328.801 422.836 330.84 421.816 334.267 421.834ZM334.267 423.1C331.859 423.1 330.488 423.645 330.488 424.664C330.488 425.648 331.859 426.193 334.267 426.193C336.641 426.193 338.029 425.648 338.029 424.664C338.029 423.645 336.641 423.1 334.267 423.1ZM334.267 412.113C337.713 412.131 339.892 413.273 339.892 415.154C339.892 417.035 337.713 418.16 334.267 418.16C330.822 418.16 328.642 417.035 328.642 415.154C328.642 413.273 330.822 412.131 334.267 412.113ZM334.267 413.449C331.842 413.449 330.348 414.064 330.365 415.154C330.348 416.244 331.842 416.859 334.267 416.859C336.676 416.859 338.17 416.244 338.17 415.154C338.17 414.064 336.676 413.449 334.267 413.449ZM355.388 411.762V423.697H353.718V422.186H350.554V421.008H353.718V411.762H355.388ZM355.775 425.807V427.16H344.402V422.537H346.054V425.807H355.775ZM342.222 418.951C345.14 418.934 349.06 418.898 352.417 418.477L352.523 419.672C351.178 419.892 349.763 420.041 348.374 420.129V423.205H346.704V420.217C345.175 420.287 343.707 420.296 342.433 420.287L342.222 418.951ZM347.372 412.359C349.675 412.359 351.275 413.467 351.275 415.137C351.275 416.807 349.675 417.879 347.372 417.879C345.034 417.879 343.452 416.807 343.452 415.137C343.452 413.467 345.034 412.359 347.372 412.359ZM347.372 413.607C345.966 413.59 345.017 414.188 345.034 415.137C345.017 416.068 345.966 416.648 347.372 416.648C348.726 416.648 349.675 416.068 349.693 415.137C349.675 414.188 348.726 413.59 347.372 413.607ZM369.758 411.744V418.125H372.29V419.514H369.758V427.494H368.106V411.744H369.758ZM366.735 414.205V415.576H357.401V414.205H361.286V411.955H362.956V414.205H366.735ZM362.13 416.736C364.38 416.736 366.032 418.248 366.049 420.393C366.032 422.555 364.38 424.049 362.13 424.066C359.862 424.049 358.21 422.555 358.21 420.393C358.21 418.248 359.862 416.736 362.13 416.736ZM362.13 418.107C360.794 418.107 359.792 419.039 359.809 420.393C359.792 421.764 360.794 422.678 362.13 422.66C363.465 422.678 364.45 421.764 364.45 420.393C364.45 419.039 363.465 418.107 362.13 418.107ZM385.43 413.256V414.803C385.43 416.754 385.43 418.934 384.832 422.15L383.145 421.975C383.76 418.934 383.76 416.701 383.76 414.803V414.609H374.197V413.256H385.43ZM387.047 423.979V425.367H372.686V423.979H378.152V418.424H379.805V423.979H387.047ZM390.712 424.787L389.306 429.639H387.812L388.744 424.787H390.712ZM54.2578 444.752C54.2578 447.635 55.875 450.5 58.2832 451.59L57.2637 452.926C55.4707 452.029 54.126 450.245 53.4316 448.092C52.7373 450.359 51.3574 452.275 49.5469 453.225L48.4922 451.871C50.9355 450.711 52.5703 447.67 52.5703 444.752V442.062H54.2578V444.752ZM61.7109 440.744V456.529H60.0586V447.336H56.543V445.982H60.0586V440.744H61.7109ZM78.1908 453.207V454.613H63.7767V453.207H70.1224V450.447H65.5345V445.438H74.7806V443.223H65.4994V441.852H76.433V446.773H67.1869V449.076H76.8021V450.447H71.7748V453.207H78.1908ZM92.5261 440.744V456.494H90.9265V440.744H92.5261ZM89.3269 441.043V455.721H87.7273V448.127H85.9519C85.8113 451.203 84.4929 453.119 82.5417 453.102C80.4851 453.119 79.1491 450.957 79.1491 447.547C79.1491 444.137 80.4851 441.992 82.5417 442.01C84.4577 441.992 85.7585 443.812 85.9519 446.773H87.7273V441.043H89.3269ZM82.5417 443.574C81.3991 443.574 80.696 445.033 80.696 447.547C80.696 450.061 81.3991 451.52 82.5417 451.52C83.7019 451.52 84.4226 450.061 84.4226 447.547C84.4226 445.033 83.7019 443.574 82.5417 443.574ZM107.705 440.744V456.494H106.123V440.744H107.705ZM104.383 441.148V455.721H102.801V448.408H99.7247C98.7843 450.236 97.2901 451.836 95.0665 453.137L94.1173 451.941C97.4571 449.955 99.0655 447.31 99.3555 444.066H94.8555V442.695H101.008C100.999 444.233 100.788 445.701 100.305 447.072H102.801V441.148H104.383ZM125.987 441.553V442.748C125.987 444.005 125.987 445.455 125.583 447.406H127.798V448.76H113.401V447.406H123.878C124.317 445.517 124.335 444.128 124.335 442.906H115.212V441.553H125.987ZM120.573 450.465C123.983 450.447 126.093 451.572 126.093 453.488C126.093 455.387 123.983 456.459 120.573 456.459C117.145 456.459 115.036 455.387 115.036 453.488C115.036 451.572 117.145 450.447 120.573 450.465ZM120.573 451.818C118.13 451.818 116.706 452.398 116.723 453.488C116.706 454.508 118.13 455.105 120.573 455.123C122.981 455.105 124.405 454.508 124.423 453.488C124.405 452.398 122.981 451.818 120.573 451.818ZM141.729 440.744V450.113H140.059V446.123H137.123V444.752H140.059V440.744H141.729ZM136.455 450.553C139.76 450.553 141.781 451.643 141.781 453.523C141.781 455.404 139.76 456.477 136.455 456.494C133.151 456.477 131.111 455.404 131.129 453.523C131.111 451.643 133.151 450.553 136.455 450.553ZM136.455 451.854C134.152 451.854 132.781 452.451 132.781 453.523C132.781 454.578 134.152 455.193 136.455 455.176C138.758 455.193 140.129 454.578 140.129 453.523C140.129 452.451 138.758 451.854 136.455 451.854ZM134.24 443.521C134.24 445.525 135.664 447.459 138.037 448.268L137.176 449.586C135.409 448.971 134.109 447.714 133.432 446.158C132.737 447.925 131.358 449.34 129.477 450.025L128.598 448.689C131.041 447.846 132.535 445.719 132.535 443.539V443.188H129.125V441.834H137.615V443.188H134.24V443.521ZM149.437 443.539C149.437 445.525 150.861 447.477 153.234 448.285L152.373 449.586C150.606 448.971 149.296 447.714 148.611 446.158C147.925 447.89 146.545 449.278 144.673 449.938L143.812 448.619C146.238 447.793 147.732 445.684 147.732 443.557V443.117H144.322V441.764H152.812V443.117H149.437V443.539ZM156.925 450.957V456.494H155.255V452.311H146.255V450.957H156.925ZM156.925 440.744V450.166H155.255V446.123H152.337V444.752H155.255V440.744H156.925ZM172.052 440.762V452.205H170.382V440.762H172.052ZM172.526 454.807V456.16H161.751V451.045H163.438V454.807H172.526ZM163.509 441.816C165.882 441.816 167.692 443.434 167.692 445.719C167.692 448.039 165.882 449.639 163.509 449.639C161.136 449.639 159.308 448.039 159.308 445.719C159.308 443.434 161.136 441.816 163.509 441.816ZM163.509 443.275C162.032 443.275 160.942 444.277 160.942 445.719C160.942 447.195 162.032 448.18 163.509 448.18C164.95 448.18 166.058 447.195 166.058 445.719C166.058 444.277 164.95 443.275 163.509 443.275ZM184.867 442.52V446.615H186.976V441.043H188.576V455.721H186.976V447.986H184.867V452.346H178.75V442.52H184.867ZM180.332 443.838V451.01H183.302V443.838H180.332ZM191.775 440.744V456.494H190.175V440.744H191.775ZM199.202 444.752C199.185 447.635 200.925 450.518 203.368 451.607L202.366 452.926C200.556 452.064 199.123 450.298 198.394 448.145C197.655 450.447 196.205 452.354 194.315 453.277L193.296 451.871C195.774 450.764 197.515 447.758 197.515 444.752V442.062H199.202V444.752ZM206.462 440.744V456.529H204.792V440.744H206.462ZM214.416 445.385C214.416 448.021 216.139 450.746 218.565 451.783L217.651 453.084C215.796 452.267 214.32 450.535 213.59 448.426C212.861 450.676 211.375 452.592 209.547 453.488L208.58 452.17C210.953 451.062 212.711 448.092 212.729 445.385V443.715H209.125V442.326H218.002V443.715H214.416V445.385ZM221.659 440.744V456.494H219.989V440.744H221.659ZM238.209 447.969V449.252H223.795V447.969H238.209ZM236.433 450.359V453.822H227.187V455.123H236.925V456.301H225.517V452.715H234.781V451.555H225.5V450.359H236.433ZM236.398 441.148V444.559H227.293V445.754H236.662V446.932H225.64V443.451H234.728V442.326H225.605V441.148H236.398ZM256.174 440.762V452.293H254.504V446.369H251.498V445.016H254.504V440.762H256.174ZM256.596 454.807V456.16H245.944V451.256H247.614V454.807H256.596ZM248.686 443.943C248.686 445.912 250.11 447.881 252.483 448.672L251.621 450.008C249.855 449.384 248.545 448.118 247.86 446.562C247.174 448.294 245.794 449.691 243.922 450.359L243.061 449.006C245.487 448.18 246.981 446.105 246.981 443.943V443.328H243.571V441.957H252.061V443.328H248.686V443.943ZM270.51 440.744V447.125H273.041V448.514H270.51V456.494H268.857V440.744H270.51ZM267.486 443.205V444.576H258.152V443.205H262.037V440.955H263.707V443.205H267.486ZM262.881 445.736C265.131 445.736 266.783 447.248 266.801 449.393C266.783 451.555 265.131 453.049 262.881 453.066C260.613 453.049 258.961 451.555 258.961 449.393C258.961 447.248 260.613 445.736 262.881 445.736ZM262.881 447.107C261.545 447.107 260.543 448.039 260.56 449.393C260.543 450.764 261.545 451.678 262.881 451.66C264.217 451.678 265.201 450.764 265.201 449.393C265.201 448.039 264.217 447.107 262.881 447.107ZM281.364 442.256V444.453H284.915V440.744H286.568V456.529H284.915V450.131H281.364V452.557H274.052V442.256H281.364ZM275.704 443.557V451.221H279.73V443.557H275.704ZM281.364 448.777H284.915V445.824H281.364V448.777ZM301.017 441.781C301.017 442.379 300.956 442.941 300.842 443.486H304.129V440.762H305.799V450.131H304.129V448.162H300.156V446.809H304.129V444.822H300.42C299.356 447.292 296.939 449.059 293.529 449.973L292.896 448.654C296.64 447.644 298.917 445.64 299.224 443.135H293.723V441.781H301.017ZM305.799 450.816V456.459H304.129V452.135H295.129V450.816H305.799ZM320.978 440.744V456.529H319.325V449.938H316.249V448.549H319.325V445.631H316.337V444.26H319.325V440.744H320.978ZM315.388 442.133V447.881H310.114V451.502C312.347 451.493 314.21 451.388 316.46 451.062L316.601 452.434C314.14 452.82 312.136 452.891 309.64 452.891H308.445V446.562H313.753V443.486H308.409V442.133H315.388ZM335.331 440.744V447.125H337.862V448.514H335.331V456.494H333.678V440.744H335.331ZM332.307 443.205V444.576H322.973V443.205H326.858V440.955H328.528V443.205H332.307ZM327.702 445.736C329.952 445.736 331.604 447.248 331.622 449.393C331.604 451.555 329.952 453.049 327.702 453.066C325.434 453.049 323.782 451.555 323.782 449.393C323.782 447.248 325.434 445.736 327.702 445.736ZM327.702 447.107C326.366 447.107 325.364 448.039 325.381 449.393C325.364 450.764 326.366 451.678 327.702 451.66C329.038 451.678 330.022 450.764 330.022 449.393C330.022 448.039 329.038 447.107 327.702 447.107ZM351.002 445.35V446.686H340.156V441.307H341.809V445.35H351.002ZM352.654 448.672V450.008H338.24V448.672H352.654ZM351.107 454.754V456.125H340.033V451.502H341.703V454.754H351.107ZM54.3633 473.752C54.3457 476.635 56.0859 479.518 58.5293 480.607L57.5273 481.926C55.7168 481.064 54.2842 479.298 53.5547 477.145C52.8164 479.447 51.3662 481.354 49.4766 482.277L48.457 480.871C50.9355 479.764 52.6758 476.758 52.6758 473.752V471.062H54.3633V473.752ZM61.623 469.744V485.529H59.9531V469.744H61.623ZM76.1517 469.744V474.402H78.4369V475.791H76.1517V481.188H74.4642V469.744H76.1517ZM71.8802 470.939C71.8802 475.07 69.0677 478.076 64.4623 479.465L63.7591 478.129C67.4418 477.021 69.7357 474.93 70.0697 472.328H64.4271V470.939H71.8802ZM76.8021 483.807V485.16H66.1498V480.01H67.8373V483.807H76.8021ZM86.1452 470.008C89.696 470.008 91.7702 470.957 91.7702 472.715C91.7702 474.473 89.696 475.439 86.1452 475.439C82.5945 475.439 80.5202 474.473 80.5202 472.715C80.5202 470.957 82.5945 470.008 86.1452 470.008ZM86.1452 471.238C83.6316 471.238 82.2429 471.783 82.2605 472.715C82.2429 473.682 83.6316 474.191 86.1452 474.191C88.6589 474.191 90.0476 473.682 90.0476 472.715C90.0476 471.783 88.6589 471.238 86.1452 471.238ZM93.3347 476.406V477.742H78.9734V476.406H93.3347ZM91.5241 478.955V482.646H82.3484V484.053H91.9636V485.336H80.7136V481.434H89.8718V480.203H80.696V478.955H91.5241ZM110.474 469.744V476.02H112.917V477.408H110.474V485.477H108.804V469.744H110.474ZM106.361 471.396C106.343 475.949 104.339 480.01 99.1538 482.576L98.2221 481.275C102.168 479.307 104.313 476.459 104.656 472.785H99.0131V471.396H106.361ZM119.237 472.258C119.237 474.209 120.766 476.037 123.192 476.74L122.348 478.041C120.512 477.487 119.123 476.283 118.411 474.736C117.699 476.389 116.293 477.698 114.403 478.322L113.559 477.004C116.003 476.248 117.532 474.332 117.55 472.258V472.082H114.016V470.729H122.7V472.082H119.237V472.258ZM126.462 469.744V478.27H124.792V469.744H126.462ZM117.796 479.008V480.766H124.809V479.008H126.462V485.301H116.161V479.008H117.796ZM117.796 483.947H124.809V482.084H117.796V483.947ZM141.676 469.744V485.494H140.006V469.744H141.676ZM131.217 471.273V480.045C133.511 480.027 135.928 479.843 138.459 479.324L138.688 480.73C135.893 481.293 133.361 481.486 130.883 481.486H129.565V471.273H131.217ZM156.064 469.744V475.844H158.595V477.215H156.064V485.529H154.394V469.744H156.064ZM151.828 471.256V472.609H146.132V480.221C148.778 480.212 150.764 480.098 153.005 479.693L153.216 481.1C150.755 481.539 148.664 481.627 145.728 481.609H144.462V471.256H151.828ZM160.784 484.123C160.099 484.123 159.518 483.561 159.536 482.875C159.518 482.189 160.099 481.627 160.784 481.627C161.452 481.627 162.032 482.189 162.032 482.875C162.032 483.561 161.452 484.123 160.784 484.123Z" fill="#111111"/>
</svg>
