<svg width="17" height="17" viewBox="0 0 17 17" fill="none" xmlns="http://www.w3.org/2000/svg">
<g style="mix-blend-mode:multiply">
<path fill-rule="evenodd" clip-rule="evenodd" d="M8.61223 16.5C6.87167 16.5 6.07143 16.5 4.25 15.9286C2.74471 16.6291 1.59913 16.4046 0.846157 16.0028C0.372507 15.75 0.502487 15.1319 0.952959 14.8398C1.75356 14.3207 2.03799 13.7372 1.54366 12.8122C0.88603 11.8875 0.220522 10.2223 0.220522 8.50553C0.220522 4.08094 3.98124 0.5 8.61223 0.5C13.2432 0.5 17 4.08094 17 8.49816C17 12.9154 13.2432 16.4963 8.61223 16.4963V16.5Z" fill="#EDEDED"/>
</g>
<circle cx="5.85693" cy="8.25763" r="1" fill="white"/>
<circle cx="8.85693" cy="8.25763" r="1" fill="white"/>
<circle cx="11.8569" cy="8.25763" r="1" fill="white"/>
</svg>
