<svg width="131" height="148" viewBox="0 0 131 148" fill="none" xmlns="http://www.w3.org/2000/svg">
<path fill-rule="evenodd" clip-rule="evenodd" d="M35.6206 54.1012C35.9992 52.0224 36.9975 50.033 38.6156 48.4261C42.3709 44.6965 48.4594 44.6965 52.2147 48.4261L57.0423 53.2207C55.8759 54.6201 55.1353 56.2408 54.8203 57.9212L54.5471 57.6575C50.5288 53.779 44.0138 53.779 39.9954 57.6575C36.4462 61.0832 36.0319 66.3889 38.7524 70.2535C36.8874 70.6432 35.1129 71.5376 33.6634 72.9367C29.645 76.8152 29.645 83.1035 33.6634 86.982L34.0084 87.3151C32.1204 87.4083 30.2603 88.1508 28.8183 89.5427C25.7272 92.5261 25.7272 97.3633 28.8183 100.347C33.1735 104.55 37.4717 108.873 41.7787 113.204C48.5774 120.042 55.3981 126.901 62.4995 133.349C54.3544 134.508 45.6419 132.171 37.0072 124.343L9.80192 97.4478C6.73269 94.3995 6.73269 89.4574 9.80192 86.4091C11.2338 84.9871 13.0807 84.2284 14.9555 84.1332L14.6128 83.7929C10.6228 79.8302 10.6228 73.4054 14.6128 69.4427C16.0522 68.0132 17.8141 67.0994 19.6659 66.7013C16.9646 62.7527 17.376 57.3319 20.9002 53.8318C24.8902 49.8691 31.3593 49.8691 35.3493 53.8318L35.6206 54.1012Z" fill="#E48E53"/>
<path d="M57.8366 52.3667C56.2071 53.9395 55.2017 55.8865 54.8203 57.9212L54.5471 57.6575C50.5288 53.779 44.0138 53.779 39.9954 57.6575C36.4462 61.0832 36.0319 66.3889 38.7524 70.2535C36.8874 70.6432 35.1129 71.5376 33.6634 72.9367C29.645 76.8152 29.645 83.1035 33.6634 86.982L34.0084 87.3151C32.1204 87.4083 30.2603 88.1508 28.8183 89.5427C25.7272 92.5261 25.7272 97.3633 28.8183 100.347C41.9106 112.983 54.4881 126.696 68.3375 138.491C79.1561 146.933 100.751 146.57 116.824 131.056C132.898 115.542 131.5 90.6289 125.339 82.1392C119.287 73.8 110.895 68.6685 104.152 60.7929C100.634 56.6837 93.5668 57.4476 91.544 62.408C90.3973 65.2203 90.2194 68.2412 90.9169 71.0766L71.5324 52.3667C67.7504 48.7163 61.6186 48.7163 57.8366 52.3667Z" fill="#FECBA7"/>
<path d="M31.5 85L53.5 107" stroke="#E48E53"/>
<path d="M37 69L63 94" stroke="#E48E53"/>
<path d="M52 55L76.5 80" stroke="#E48E53"/>
<path d="M91 71L97 76" stroke="#E48E53"/>
<path d="M22.3594 11.1196L36.904 28.4532" stroke="#856AE9" stroke-width="6" stroke-linecap="round"/>
<path d="M94.4922 12.9927L80.2523 30.5775" stroke="#856AE9" stroke-width="6" stroke-linecap="round"/>
<path d="M58.5 25.6274V3.00002" stroke="#856AE9" stroke-width="6" stroke-linecap="round"/>
</svg>
