<svg width="131" height="148" viewBox="0 0 131 148" fill="none" xmlns="http://www.w3.org/2000/svg">
<g clip-path="url(#clip0_58_258)">
<path fill-rule="evenodd" clip-rule="evenodd" d="M65.5814 136.105C54.8159 141.502 42.3322 141.517 30.0072 130.343L2.80192 103.448C-0.267308 100.4 -0.267308 95.4574 2.80192 92.4091C3.12104 92.0922 3.46078 91.8082 3.81684 91.5572C4.84337 90.8335 6.00562 90.3837 7.20086 90.2077C7.45126 90.1709 7.70311 90.146 7.95547 90.1332L7.61283 89.7929C6.63188 88.8187 5.89211 87.6956 5.3935 86.497C3.86399 82.82 4.60377 78.4312 7.61282 75.4427C8.03371 75.0247 8.48217 74.6508 8.9524 74.321C10.0903 73.5229 11.3556 72.983 12.6659 72.7013C11.8805 71.5531 11.3582 70.2805 11.099 68.9668C10.4671 65.7626 11.4008 62.3141 13.9002 59.8318C16.9304 56.8223 21.3904 56.0984 25.1085 57.66C26.2862 58.1546 27.3895 58.8785 28.3493 59.8318L28.6206 60.1012C28.6629 59.8686 28.713 59.6372 28.7709 59.4072C29.0598 58.2597 29.5418 57.1503 30.2171 56.13C30.6159 55.5274 31.082 54.956 31.6156 54.4261C35.3709 50.6965 41.4594 50.6965 45.2147 54.4261L45.6618 54.8702C44.1726 55.0966 42.725 55.6393 41.4353 56.4984C39.2587 55.1238 36.3324 55.379 34.4343 57.2642C33.413 58.2785 32.7921 59.5207 32.5558 60.818L32.1031 63.3036L35.0173 66.697C35.7369 67.5349 35.641 68.7976 34.803 69.5173C33.9651 70.2369 32.7024 70.141 31.9827 69.303L30.6682 67.7724L25.8019 62.9393L25.5306 62.6699C23.1004 60.2564 19.1491 60.2564 16.7189 62.6699C14.5871 64.7871 14.3373 68.0601 15.9673 70.4427L17.8144 73.1427L26.3082 80.4871C27.1437 81.2096 27.2353 82.4726 26.5129 83.3082C25.7904 84.1437 24.5274 84.2353 23.6918 83.5129L15.2721 76.2323L13.5067 76.6119C12.3783 76.8545 11.3099 77.4085 10.4315 78.2808C8.01659 80.6793 8.01659 84.5564 10.4315 86.9548L7.92236 89.4813L10.4315 86.9548L10.7742 87.2951L16.3077 92.7908L17.7455 93.9351C18.6097 94.623 18.7527 95.8812 18.0649 96.7455C17.377 97.6097 16.1188 97.7527 15.2545 97.0649L11.3603 93.9655L8.15832 94.1281C7.22616 94.1754 6.32355 94.5491 5.62062 95.2473C4.12743 96.7302 4.12646 99.1226 5.61771 100.607L5.62062 100.61L32.7566 127.436C40.7077 134.618 48.349 136.419 55.2655 135.34C57.6575 134.967 60.0264 134.239 62.3461 133.21C63.4179 134.185 64.496 135.15 65.5814 136.105Z" fill="url(#paint0_linear_58_258)"/>
<mask id="path-2-inside-1_58_258" fill="white">
<path d="M57.8366 52.3667C56.2071 53.9395 55.2017 55.8865 54.8203 57.9212L54.5471 57.6575C50.5288 53.779 44.0138 53.779 39.9954 57.6575C36.4462 61.0832 36.0319 66.3889 38.7524 70.2535C36.8874 70.6432 35.1129 71.5376 33.6634 72.9367C29.645 76.8152 29.645 83.1035 33.6634 86.982L34.0084 87.3151C32.1204 87.4083 30.2603 88.1508 28.8183 89.5427C25.7272 92.5261 25.7272 97.3633 28.8183 100.347C41.9106 112.983 54.4881 126.696 68.3375 138.491C79.1561 146.933 100.751 146.57 116.824 131.056C132.898 115.542 131.5 90.6289 125.339 82.1392C119.287 73.8 110.895 68.6685 104.152 60.7929C100.634 56.6837 93.5668 57.4476 91.544 62.408C90.3973 65.2203 90.2194 68.2412 90.9169 71.0766L71.5324 52.3667C67.7504 48.7163 61.6186 48.7163 57.8366 52.3667Z"/>
</mask>
<path d="M56.4682 108.459C57.2737 109.214 58.5394 109.174 59.2952 108.368C60.0509 107.563 60.0106 106.297 59.205 105.541L56.4682 108.459ZM103.564 89.3925C104.333 90.1853 105.6 90.2047 106.392 89.4356C107.185 88.6666 107.205 87.4004 106.436 86.6075L103.564 89.3925ZM65.7209 98.1848C66.5053 98.9625 67.7716 98.957 68.5493 98.1726C69.327 97.3882 69.3215 96.1219 68.5371 95.3442L65.7209 98.1848ZM78.0891 85.9816C78.8846 86.7479 80.1507 86.7241 80.917 85.9286C81.6833 85.133 81.6595 83.8669 80.8639 83.1006L78.0891 85.9816ZM35.1316 88.4406L56.4682 108.459L59.205 105.541L37.8684 85.5235L35.1316 88.4406ZM85.1065 70.3624L103.564 89.3925L106.436 86.6075L87.9778 67.5775L85.1065 70.3624ZM39.2266 71.9182L65.7209 98.1848L68.5371 95.3442L42.0427 69.0776L39.2266 71.9182ZM53.4329 62.2334L78.0891 85.9816L80.8639 83.1006L56.2078 59.3524L53.4329 62.2334ZM54.8203 57.9212L52.0424 60.7992L57.3842 65.9552L58.7519 58.658L54.8203 57.9212ZM57.8366 52.3667L55.0587 49.4886L57.8366 52.3667ZM54.5471 57.6575L57.3251 54.7794L57.3251 54.7794L54.5471 57.6575ZM39.9954 57.6575L42.7733 60.5356L42.7733 60.5356L39.9954 57.6575ZM38.7524 70.2535L39.5705 74.169L45.5245 72.9249L42.0232 67.951L38.7524 70.2535ZM33.6634 72.9367L36.4413 75.8148L36.4413 75.8148L33.6634 72.9367ZM33.6634 86.982L36.4413 84.104L36.4413 84.104L33.6634 86.982ZM34.0084 87.3151L34.2056 91.3102L43.4354 90.8547L36.7864 84.4371L34.0084 87.3151ZM28.8183 89.5427L31.5962 92.4207L31.5962 92.4207L28.8183 89.5427ZM28.8183 100.347L26.0404 103.225L26.0404 103.225L28.8183 100.347ZM68.3375 138.491L65.744 141.536L65.8092 141.591L65.8767 141.644L68.3375 138.491ZM116.824 131.056L114.046 128.178L114.046 128.178L116.824 131.056ZM125.339 82.1392L128.576 79.7898L128.576 79.7898L125.339 82.1392ZM104.152 60.7929L101.114 63.3944L101.114 63.3944L104.152 60.7929ZM91.544 62.408L95.2479 63.9184L95.2479 63.9184L91.544 62.408ZM90.9169 71.0766L88.139 73.9546L98.1122 83.5808L94.8011 70.121L90.9169 71.0766ZM71.5324 52.3667L74.3103 49.4886L71.5324 52.3667ZM58.7519 58.658C58.9824 57.4281 59.5908 56.2328 60.6145 55.2447L55.0587 49.4886C52.8234 51.6461 51.421 54.3449 50.8888 57.1843L58.7519 58.658ZM51.7692 60.5355L52.0424 60.7992L57.5983 55.0431L57.3251 54.7794L51.7692 60.5355ZM42.7733 60.5356C45.2418 58.153 49.3008 58.153 51.7692 60.5356L57.3251 54.7794C51.7569 49.405 42.7857 49.405 37.2175 54.7794L42.7733 60.5356ZM42.0232 67.951C40.4274 65.684 40.6557 62.5795 42.7733 60.5356L37.2175 54.7794C32.2367 59.5869 31.6363 67.0937 35.4815 72.556L42.0232 67.951ZM36.4413 75.8148C37.3234 74.9634 38.4087 74.4117 39.5705 74.169L37.9342 66.3381C35.3661 66.8747 32.9025 68.1118 30.8855 70.0587L36.4413 75.8148ZM36.4413 84.104C34.0524 81.7982 34.0524 78.1206 36.4413 75.8148L30.8855 70.0587C25.2376 75.5099 25.2376 84.4088 30.8855 89.8601L36.4413 84.104ZM36.7864 84.4371L36.4413 84.104L30.8854 89.8601L31.2305 90.1931L36.7864 84.4371ZM31.5962 92.4207C32.302 91.7395 33.2282 91.3585 34.2056 91.3102L33.8113 83.32C31.0126 83.4581 28.2187 84.5621 26.0404 86.6646L31.5962 92.4207ZM31.5962 97.4687C30.1346 96.058 30.1346 93.8314 31.5962 92.4207L26.0404 86.6646C21.3199 91.2208 21.3199 98.6686 26.0404 103.225L31.5962 97.4687ZM114.046 128.178C99.1009 142.603 79.7323 142.309 70.7983 135.337L65.8767 141.644C78.5799 151.557 102.401 150.536 119.602 133.934L114.046 128.178ZM122.102 84.4886C124.395 87.6488 126.276 94.8851 125.438 103.58C124.618 112.083 121.252 121.223 114.046 128.178L119.602 133.934C128.47 125.375 132.442 114.302 133.401 104.347C134.342 94.5843 132.444 85.1193 128.576 79.7898L122.102 84.4886ZM95.2479 63.9184C95.6233 62.9979 96.5032 62.3233 97.7675 62.1705C99.0531 62.015 100.321 62.4686 101.114 63.3944L107.191 58.1913C104.465 55.008 100.44 53.789 96.8071 54.2283C93.1526 54.6702 89.4875 56.8578 87.8401 60.8976L95.2479 63.9184ZM94.8011 70.121C94.2997 68.0829 94.429 65.9265 95.2479 63.9184L87.8401 60.8976C86.3655 64.514 86.1391 68.3995 87.0327 72.0321L94.8011 70.121ZM68.7545 55.2447L88.139 73.9546L93.6948 68.1985L74.3103 49.4886L68.7545 55.2447ZM60.6145 55.2447C62.8466 53.0903 66.5223 53.0903 68.7545 55.2447L74.3103 49.4886C68.9784 44.3423 60.3905 44.3423 55.0587 49.4886L60.6145 55.2447ZM101.114 63.3944C104.7 67.5833 108.729 71.043 112.337 74.2725C116.021 77.5705 119.348 80.6943 122.102 84.4886L128.576 79.7898C125.278 75.2449 121.383 71.6334 117.673 68.3119C113.886 64.9219 110.347 61.878 107.191 58.1913L101.114 63.3944ZM70.931 135.445C57.1925 123.745 44.9407 110.349 31.5962 97.4687L26.0404 103.225C38.8805 115.618 51.7836 129.646 65.744 141.536L70.931 135.445Z" fill="url(#paint1_linear_58_258)" mask="url(#path-2-inside-1_58_258)"/>
</g>
<path d="M22.3594 11.1196L36.904 28.4532" stroke="#FAB342" stroke-width="6" stroke-linecap="round"/>
<path d="M94.4922 12.9927L80.2523 30.5775" stroke="#FAB342" stroke-width="6" stroke-linecap="round"/>
<path d="M58.5 25.6274V3.00002" stroke="#FAB342" stroke-width="6" stroke-linecap="round"/>
<defs>
<linearGradient id="paint0_linear_58_258" x1="0.5" y1="60.4289" x2="0.5" y2="179.229" gradientUnits="userSpaceOnUse">
<stop stop-color="#FED046"/>
<stop offset="1" stop-color="#F6843E"/>
</linearGradient>
<linearGradient id="paint1_linear_58_258" x1="26.5" y1="59.0658" x2="26.5" y2="186.464" gradientUnits="userSpaceOnUse">
<stop stop-color="#FED046"/>
<stop offset="1" stop-color="#F6843E"/>
</linearGradient>
<clipPath id="clip0_58_258">
<rect width="130" height="130" fill="white" transform="translate(0.5 17.6289)"/>
</clipPath>
</defs>
</svg>
