<svg width="307" height="122" viewBox="0 0 307 122" fill="none" xmlns="http://www.w3.org/2000/svg">
<g filter="url(#filter0_dd_117_1998)">
<path d="M65.1869 36.1387C64.4372 30.4389 59.1463 26.2266 53.4748 27.001L49.5357 27.679C43.8642 28.4534 40.2053 33.3925 40.955 39.0923L40.9953 40.5049L65.3564 37.1234L65.1869 36.1387Z" fill="url(#paint0_linear_117_1998)"/>
<path d="M28.1283 55.2922C23.1379 71.8212 32.1848 89.1929 48.6057 94.1506C65.0265 99.1082 82.6031 89.7745 87.5935 73.2455C92.5839 56.7165 83.1092 39.2156 66.6883 34.258C50.2674 29.3003 33.1187 38.7632 28.1283 55.2922Z" fill="url(#paint1_linear_117_1998)"/>
</g>
<path d="M50.9427 27.5928L50.9478 27.6387L49.5353 27.6791C46.9885 19.0642 49.6987 12.9449 51.3196 10.9462L53.8864 11.7212C49.6443 15.9735 50.5028 23.6565 50.9427 27.5928Z" fill="#423636"/>
<path d="M36.3462 17.5219C36.3462 17.5219 37.1522 22.594 41.0013 25.4793C44.8504 28.3646 49.5763 27.4392 49.5763 27.4392C49.5763 27.4392 49.3952 22.2771 45.5461 19.3918C41.697 16.5065 36.3462 17.5219 36.3462 17.5219Z" fill="#378F63"/>
<path d="M52.0996 56.5001V59.7001" stroke="black" stroke-width="3.2" stroke-linecap="round"/>
<path d="M63.2998 66.1001C59.5785 68.1692 57.4119 68.2967 53.6998 66.1001" stroke="black" stroke-width="1.6" stroke-linecap="round"/>
<path d="M64.8999 56.5001V59.7001" stroke="black" stroke-width="3.2" stroke-linecap="round"/>
<g style="mix-blend-mode:multiply" filter="url(#filter1_f_117_1998)">
<ellipse cx="46.5" cy="64.5001" rx="4.00001" ry="4.8" fill="url(#paint2_radial_117_1998)"/>
</g>
<g style="mix-blend-mode:multiply" filter="url(#filter2_f_117_1998)">
<ellipse cx="68.8999" cy="64.5001" rx="4.00001" ry="4.8" fill="url(#paint3_radial_117_1998)"/>
</g>
<path d="M135.286 27.0178V33.1584H138.145V35.2913H135.286V41.3381H132.684V27.0178H135.286ZM128.278 41.5256C132.778 41.5256 135.379 42.7209 135.403 44.8772C135.379 47.0334 132.778 48.1819 128.278 48.1819C123.708 48.1819 121.129 47.0334 121.129 44.8772C121.129 42.7209 123.708 41.5256 128.278 41.5256ZM128.278 43.4475C125.231 43.4241 123.731 43.9163 123.731 44.8772C123.731 45.7678 125.231 46.26 128.278 46.26C131.278 46.26 132.754 45.7678 132.778 44.8772C132.754 43.9163 131.278 43.4241 128.278 43.4475ZM118.317 38.6194C119.922 38.6194 121.75 38.6194 123.661 38.5491V37.1663C121.282 36.8967 119.817 35.8186 119.817 34.2131C119.817 32.3381 121.809 31.1897 124.926 31.1897C128.043 31.1897 130.036 32.3381 130.036 34.2131C130.036 35.8069 128.606 36.8733 126.262 37.1428V38.4553C128.067 38.3733 129.883 38.2209 131.583 37.9866L131.793 39.7913C127.27 40.5647 122.348 40.635 118.598 40.635L118.317 38.6194ZM131.02 28.635V30.5569H118.856V28.635H123.661V26.8303H126.262V28.635H131.02ZM124.926 32.9241C123.286 32.9241 122.301 33.4163 122.325 34.2131C122.301 35.0569 123.286 35.5256 124.926 35.5256C126.567 35.5256 127.551 35.0569 127.551 34.2131C127.551 33.4163 126.567 32.9241 124.926 32.9241ZM155.759 28.0256V29.6663C155.759 31.3069 155.759 33.1819 155.243 35.6897H158.126V37.7991H138.767V35.6897H152.618C153.11 33.4045 153.157 31.6584 153.157 30.1116H141.157V28.0256H155.759ZM155.735 40.26V47.9241H141.087V40.26H155.735ZM143.642 42.2991V45.8147H153.157V42.2991H143.642ZM178.623 30.2991V32.4319H175.74V34.8459H178.623V36.9788H175.74V40.5178H173.138V26.9944H175.74V30.2991H178.623ZM168.896 40.7053C173.232 40.7053 175.974 42.0881 175.974 44.4319C175.974 46.7522 173.232 48.1584 168.896 48.1584C164.49 48.1584 161.794 46.7522 161.818 44.4319C161.794 42.0881 164.49 40.7053 168.896 40.7053ZM168.896 42.6975C165.99 42.6975 164.373 43.26 164.396 44.4319C164.373 45.5569 165.99 46.1897 168.896 46.1897C171.755 46.1897 173.373 45.5569 173.373 44.4319C173.373 43.26 171.755 42.6975 168.896 42.6975ZM171.615 29.1506V31.1897H159.052V29.1506H164.044V26.8538H166.646V29.1506H171.615ZM165.333 32.0334C168.404 32.0334 170.49 33.5569 170.513 35.8303C170.49 38.1038 168.404 39.6038 165.333 39.6038C162.24 39.6038 160.13 38.1038 160.13 35.8303C160.13 33.5569 162.24 32.0334 165.333 32.0334ZM165.333 33.9553C163.716 33.9553 162.662 34.6584 162.662 35.8303C162.662 36.9788 163.716 37.635 165.333 37.635C166.951 37.635 168.029 36.9788 168.029 35.8303C168.029 34.6584 166.951 33.9553 165.333 33.9553ZM188.924 27.3225C193.752 27.3225 196.541 28.6116 196.564 30.9553C196.541 33.3225 193.752 34.5881 188.924 34.6116C184.096 34.5881 181.283 33.3225 181.283 30.9553C181.283 28.6116 184.096 27.3225 188.924 27.3225ZM188.924 29.2444C185.689 29.2444 184.002 29.8538 184.025 30.9553C184.002 32.1272 185.689 32.6663 188.924 32.6663C192.205 32.6663 193.869 32.1272 193.869 30.9553C193.869 29.8538 192.205 29.2444 188.924 29.2444ZM198.603 35.7366V37.8225H179.291V35.7366H198.603ZM196.189 39.2522V44.4319H184.143V46.0022H196.775V47.9944H181.588V42.5803H193.635V41.1741H181.564V39.2522H196.189ZM221.808 32.1506V34.2131H215.714V35.8303H224.081V37.8928H204.768V35.8303H213.112V34.2131H207.229V27.7444H221.62V29.8538H209.831V32.1506H221.808ZM221.667 39.2522V44.4084H209.62V45.9788H222.253V47.9709H207.065V42.5803H219.112V41.1741H207.042V39.2522H221.667ZM228.687 28.7053V31.5413H234.195V28.7053H236.796V38.385H232.765V41.7834C234.499 41.6897 236.245 41.5608 237.874 41.3381L238.062 43.26C233.632 44.0334 228.781 44.0569 225.148 44.0803L224.773 41.9241C226.378 41.9124 228.23 41.9124 230.163 41.8538V38.385H226.109V28.7053H228.687ZM228.687 36.2991H234.195V33.5334H228.687V36.2991ZM241.695 26.9944V35.5959H244.765V37.7756H241.695V48.1819H239.093V26.9944H241.695ZM264.605 38.8069V40.9163H256.191V48.1584H253.613V40.9163H245.293V38.8069H264.605ZM262.824 28.1897V30.2522H256.473C256.625 32.5725 259.414 34.7991 263.598 35.3381L262.66 37.3772C259.051 36.8733 256.238 35.2209 254.949 32.9241C253.66 35.2209 250.848 36.8733 247.285 37.3772L246.301 35.3381C250.461 34.7991 253.25 32.5725 253.449 30.2522H247.074V28.1897H262.824ZM272.164 32.5491C272.164 35.9709 273.36 39.5334 276.219 41.3381L274.789 43.3303C272.879 42.1819 271.637 40.2014 270.946 37.8694C270.172 40.4358 268.813 42.6038 266.821 43.8225L265.203 41.8772C268.274 40.0022 269.657 36.2756 269.657 32.6663V28.8694H272.164V32.5491ZM283.836 26.9944V48.1819H281.328V26.9944H283.836ZM279.43 27.3694V47.1506H276.969V36.4397H273.946V34.2834H276.969V27.3694H279.43ZM305.177 43.4709V45.6038H285.817V43.4709H290.294V38.1038C288.606 37.1428 287.587 35.6311 287.598 33.7444C287.575 30.3694 290.903 28.1428 295.45 28.1428C300.02 28.1428 303.348 30.3694 303.348 33.7444C303.348 35.5959 302.364 37.0842 300.723 38.0569V43.4709H305.177ZM295.45 30.2053C292.286 30.2053 290.13 31.5413 290.153 33.7444C290.13 35.9241 292.286 37.2834 295.45 37.2834C298.614 37.2834 300.794 35.9241 300.794 33.7444C300.794 31.5413 298.614 30.2053 295.45 30.2053ZM292.872 43.4709H298.075V39.0413C297.266 39.2288 296.388 39.3225 295.45 39.3225C294.536 39.3225 293.669 39.2288 292.872 39.0647V43.4709Z" fill="#111111"/>
<path d="M134.52 77.928V79.7053H118.387V77.928H125.34V74.4905H120.165V65.3499H122.333V68.2405H130.516V65.3499H132.684V74.4905H127.489V77.928H134.52ZM122.333 72.7327H130.516V69.9788H122.333V72.7327ZM150.058 64.178V81.8538H147.89V72.4592H144.862V70.6819H147.89V64.178H150.058ZM143.847 65.7209V72.1858H138.065V75.8967C140.683 75.887 142.802 75.7991 145.175 75.3694L145.35 77.1467C142.714 77.6155 140.37 77.7131 137.323 77.7131H135.917V70.428H141.718V67.4788H135.858V65.7209H143.847ZM170.332 64.178V71.0725H172.949V72.8889H170.332V81.7952H168.164V64.178H170.332ZM165.664 66.0139C165.664 71.2092 163.515 75.76 157.636 78.6506L156.406 76.9709C160.703 74.8323 163.027 71.8245 163.476 67.8108H157.363V66.0139H165.664ZM188.135 64.178V81.8342H185.947V64.178H188.135ZM182.861 66.053C182.861 71.3069 180.83 75.7795 174.639 78.7092L173.506 76.9709C178.125 74.7737 180.274 71.7854 180.654 67.7717H174.404V66.053H182.861Z" fill="#111111"/>
<path d="M205.101 68.496L209.301 72.696L205.101 76.896" stroke="#111111" stroke-width="2" stroke-linecap="round" stroke-linejoin="round"/>
<defs>
<filter id="filter0_dd_117_1998" x="0.757603" y="0.908909" width="114.169" height="120.571" filterUnits="userSpaceOnUse" color-interpolation-filters="sRGB">
<feFlood flood-opacity="0" result="BackgroundImageFix"/>
<feColorMatrix in="SourceAlpha" type="matrix" values="0 0 0 0 0 0 0 0 0 0 0 0 0 0 0 0 0 0 127 0" result="hardAlpha"/>
<feOffset/>
<feGaussianBlur stdDeviation="9.10007"/>
<feComposite in2="hardAlpha" operator="out"/>
<feColorMatrix type="matrix" values="0 0 0 0 0.87451 0 0 0 0 0.72549 0 0 0 0 0.333333 0 0 0 1 0"/>
<feBlend mode="normal" in2="BackgroundImageFix" result="effect1_dropShadow_117_1998"/>
<feColorMatrix in="SourceAlpha" type="matrix" values="0 0 0 0 0 0 0 0 0 0 0 0 0 0 0 0 0 0 127 0" result="hardAlpha"/>
<feOffset/>
<feGaussianBlur stdDeviation="13.0001"/>
<feComposite in2="hardAlpha" operator="out"/>
<feColorMatrix type="matrix" values="0 0 0 0 0.980648 0 0 0 0 0.793634 0 0 0 0 0.179163 0 0 0 0.21 0"/>
<feBlend mode="normal" in2="effect1_dropShadow_117_1998" result="effect2_dropShadow_117_1998"/>
<feBlend mode="normal" in="SourceGraphic" in2="effect2_dropShadow_117_1998" result="shape"/>
</filter>
<filter id="filter1_f_117_1998" x="40.9" y="58.1001" width="11.2" height="12.8" filterUnits="userSpaceOnUse" color-interpolation-filters="sRGB">
<feFlood flood-opacity="0" result="BackgroundImageFix"/>
<feBlend mode="normal" in="SourceGraphic" in2="BackgroundImageFix" result="shape"/>
<feGaussianBlur stdDeviation="0.800001" result="effect1_foregroundBlur_117_1998"/>
</filter>
<filter id="filter2_f_117_1998" x="63.2999" y="58.1001" width="11.2" height="12.8" filterUnits="userSpaceOnUse" color-interpolation-filters="sRGB">
<feFlood flood-opacity="0" result="BackgroundImageFix"/>
<feBlend mode="normal" in="SourceGraphic" in2="BackgroundImageFix" result="shape"/>
<feGaussianBlur stdDeviation="0.800001" result="effect1_foregroundBlur_117_1998"/>
</filter>
<linearGradient id="paint0_linear_117_1998" x1="68.0677" y1="30.4623" x2="48.8198" y2="94.2152" gradientUnits="userSpaceOnUse">
<stop stop-color="#F3AB25"/>
<stop offset="1" stop-color="#F3AB25"/>
</linearGradient>
<linearGradient id="paint1_linear_117_1998" x1="68.0677" y1="30.4623" x2="48.8198" y2="94.2152" gradientUnits="userSpaceOnUse">
<stop stop-color="#F4C21E"/>
<stop offset="1" stop-color="#F6843E"/>
</linearGradient>
<radialGradient id="paint2_radial_117_1998" cx="0" cy="0" r="1" gradientUnits="userSpaceOnUse" gradientTransform="translate(46.475 64.5001) rotate(80.5377) scale(4.86621 4.05518)">
<stop stop-color="#FFCED1"/>
<stop offset="1" stop-color="#FFF6E7"/>
</radialGradient>
<radialGradient id="paint3_radial_117_1998" cx="0" cy="0" r="1" gradientUnits="userSpaceOnUse" gradientTransform="translate(68.8749 64.5001) rotate(80.5377) scale(4.86621 4.05518)">
<stop stop-color="#FFCED1"/>
<stop offset="1" stop-color="#FFF6E7"/>
</radialGradient>
</defs>
</svg>
