<svg width="432" height="296" viewBox="0 0 432 296" fill="none" xmlns="http://www.w3.org/2000/svg">
<rect width="432" height="296" rx="12" fill="#EFF5EA"/>
<g filter="url(#filter0_f_82_487)">
<path d="M275 245.677C275 235.441 156 235.441 156 245.677C156 253.471 182.639 264 215.5 264C248.361 264 275 253.471 275 245.677Z" fill="#0D0D0C" fill-opacity="0.41"/>
</g>
<mask id="mask0_82_487" style="mask-type:alpha" maskUnits="userSpaceOnUse" x="0" y="0" width="432" height="296">
<path d="M0 12C0 5.37258 5.37258 0 12 0H420C426.627 0 432 5.37258 432 12V284C432 290.627 426.627 296 420 296H12C5.37259 296 0 290.627 0 284V12Z" fill="#FFF9ED"/>
</mask>
<g mask="url(#mask0_82_487)">
<path fill-rule="evenodd" clip-rule="evenodd" d="M203.405 358.1C290.78 362.47 425.993 345.868 519.348 330.113L550.39 211C512.087 204.242 328.672 187.145 203.405 245.663C78.1389 187.145 -105.277 204.242 -143.58 211L-112.537 330.113C-19.1824 345.868 116.03 362.47 203.405 358.1Z" fill="url(#paint0_radial_82_487)"/>
</g>
<ellipse cx="214.364" cy="201.46" rx="56.25" ry="69.75" transform="rotate(-76.8533 214.364 201.46)" fill="url(#paint1_radial_82_487)"/>
<path d="M235.441 162.233C245.901 165.613 249.128 167.769 256.255 176.138" stroke="#613D2D" stroke-width="4.5" stroke-linecap="round"/>
<path d="M198.013 188.91L198.078 197.91" stroke="black" stroke-width="9" stroke-linecap="round"/>
<path d="M229.708 215.682C219.284 221.576 213.193 221.979 202.709 215.877" stroke="black" stroke-width="4.5" stroke-linecap="round"/>
<path d="M234.013 188.65L234.078 197.65" stroke="black" stroke-width="9" stroke-linecap="round"/>
<g style="mix-blend-mode:multiply" filter="url(#filter1_f_82_487)">
<ellipse cx="183.427" cy="211.524" rx="11.25" ry="13.5" transform="rotate(-0.41478 183.427 211.524)" fill="url(#paint2_radial_82_487)"/>
</g>
<g style="mix-blend-mode:multiply" filter="url(#filter2_f_82_487)">
<ellipse cx="245.425" cy="211.068" rx="11.25" ry="13.5" transform="rotate(-0.41478 245.425 211.068)" fill="url(#paint3_radial_82_487)"/>
</g>
<path d="M244.833 115.378L244.893 132.348" stroke="#856AE9" stroke-width="4.5" stroke-linecap="round"/>
<path d="M288.814 137.586L274.157 146.14" stroke="#856AE9" stroke-width="4.5" stroke-linecap="round"/>
<path d="M262.832 136.157L270.621 121.08" stroke="#856AE9" stroke-width="4.5" stroke-linecap="round"/>
<defs>
<filter id="filter0_f_82_487" x="140" y="222" width="151" height="58" filterUnits="userSpaceOnUse" color-interpolation-filters="sRGB">
<feFlood flood-opacity="0" result="BackgroundImageFix"/>
<feBlend mode="normal" in="SourceGraphic" in2="BackgroundImageFix" result="shape"/>
<feGaussianBlur stdDeviation="8" result="effect1_foregroundBlur_82_487"/>
</filter>
<filter id="filter1_f_82_487" x="167.677" y="193.524" width="31.5005" height="35.9998" filterUnits="userSpaceOnUse" color-interpolation-filters="sRGB">
<feFlood flood-opacity="0" result="BackgroundImageFix"/>
<feBlend mode="normal" in="SourceGraphic" in2="BackgroundImageFix" result="shape"/>
<feGaussianBlur stdDeviation="2.25" result="effect1_foregroundBlur_82_487"/>
</filter>
<filter id="filter2_f_82_487" x="229.675" y="193.068" width="31.5005" height="35.9998" filterUnits="userSpaceOnUse" color-interpolation-filters="sRGB">
<feFlood flood-opacity="0" result="BackgroundImageFix"/>
<feBlend mode="normal" in="SourceGraphic" in2="BackgroundImageFix" result="shape"/>
<feGaussianBlur stdDeviation="2.25" result="effect1_foregroundBlur_82_487"/>
</filter>
<radialGradient id="paint0_radial_82_487" cx="0" cy="0" r="1" gradientUnits="userSpaceOnUse" gradientTransform="translate(192.891 239.248) rotate(86.8872) scale(252.26 1121.35)">
<stop stop-color="#A86536"/>
<stop offset="1" stop-color="#543B2F"/>
</radialGradient>
<radialGradient id="paint1_radial_82_487" cx="0" cy="0" r="1" gradientUnits="userSpaceOnUse" gradientTransform="translate(212.659 163.902) rotate(89.09) scale(107.321 86.5816)">
<stop stop-color="#95634C"/>
<stop offset="1" stop-color="#543B2F"/>
</radialGradient>
<radialGradient id="paint2_radial_82_487" cx="0" cy="0" r="1" gradientUnits="userSpaceOnUse" gradientTransform="translate(183.357 211.524) rotate(80.5377) scale(13.6862 11.4052)">
<stop stop-color="#FFCED1"/>
<stop offset="1" stop-color="#FFF6E7"/>
</radialGradient>
<radialGradient id="paint3_radial_82_487" cx="0" cy="0" r="1" gradientUnits="userSpaceOnUse" gradientTransform="translate(245.355 211.068) rotate(80.5377) scale(13.6862 11.4052)">
<stop stop-color="#FFCED1"/>
<stop offset="1" stop-color="#FFF6E7"/>
</radialGradient>
</defs>
</svg>
