<svg width="432" height="305" viewBox="0 0 432 305" fill="none" xmlns="http://www.w3.org/2000/svg">
<rect y="8.1084" width="432" height="296" rx="12" fill="#EFF5EA"/>
<mask id="mask0_106_80" style="mask-type:alpha" maskUnits="userSpaceOnUse" x="0" y="8" width="432" height="297">
<path d="M0 20.1084C0 13.481 5.37258 8.1084 12 8.1084H420C426.627 8.1084 432 13.481 432 20.1084V292.108C432 298.736 426.627 304.108 420 304.108H12C5.37259 304.108 0 298.736 0 292.108V20.1084Z" fill="#FFF9ED"/>
</mask>
<g mask="url(#mask0_106_80)">
<path fill-rule="evenodd" clip-rule="evenodd" d="M203.405 366.209C290.78 370.578 425.993 353.977 519.348 338.221L550.39 219.108C512.087 212.35 328.672 195.253 203.405 253.772C78.1389 195.253 -105.277 212.35 -143.58 219.108L-112.537 338.221C-19.1824 353.977 116.03 370.578 203.405 366.209Z" fill="url(#paint0_radial_106_80)"/>
</g>
<g filter="url(#filter0_f_106_80)">
<path d="M239 268.432C239 278.667 200 278.667 200 268.432C200 260.637 208.73 250.108 219.5 250.108C230.27 250.108 239 260.637 239 268.432Z" fill="#0D0D0C" fill-opacity="0.41"/>
</g>
<path d="M206.55 152.373H240.35L243.6 264.173C225.337 272.398 214.268 270.365 194.2 264.173L206.55 152.373Z" fill="url(#paint1_linear_106_80)"/>
<path d="M253.876 213.056L261.151 215.131L240.662 238.069C235.735 236.65 233.752 234.735 231.929 229.336L253.876 213.056Z" fill="url(#paint2_linear_106_80)"/>
<path d="M215.65 219.973V222.573" stroke="black" stroke-width="2.6" stroke-linecap="round"/>
<path d="M224.75 227.773C221.726 229.454 219.966 229.557 216.95 227.773" stroke="black" stroke-width="1.3" stroke-linecap="round"/>
<path d="M226.05 219.973V222.573" stroke="black" stroke-width="2.6" stroke-linecap="round"/>
<g style="mix-blend-mode:multiply" filter="url(#filter1_f_106_80)">
<ellipse cx="211.101" cy="226.473" rx="3.25" ry="3.9" fill="url(#paint3_radial_106_80)"/>
</g>
<g style="mix-blend-mode:multiply" filter="url(#filter2_f_106_80)">
<ellipse cx="229.3" cy="226.473" rx="3.25" ry="3.9" fill="url(#paint4_radial_106_80)"/>
</g>
<path d="M241.001 102.084C241.001 123.136 216.846 140.201 187.051 140.201C157.255 140.201 133.101 123.136 133.101 102.084C133.101 75.6662 157.255 63.9662 187.051 63.9662C216.846 63.9662 241.001 81.032 241.001 102.084Z" fill="url(#paint5_radial_106_80)"/>
<path d="M196.8 96.3874C196.8 117.439 220.954 134.505 250.75 134.505C280.546 134.505 304.7 117.439 304.7 96.3874C304.7 70.4662 280.546 58.2698 250.75 58.2698C220.954 58.2698 196.8 75.3356 196.8 96.3874Z" fill="url(#paint6_radial_106_80)"/>
<path d="M186.402 116.038C140.252 105.567 147.568 31.0005 214.125 31.7342C283.422 32.4981 291.327 83.4348 276.1 106.216C260.902 128.956 208.973 131.5 186.402 116.038Z" fill="url(#paint7_radial_106_80)"/>
<path d="M130.846 111.756C131.146 109.476 133.262 107.791 135.531 108.1L137.106 108.372C139.375 108.681 140.838 110.657 140.539 112.937L140.523 113.502L130.778 112.149L130.846 111.756Z" fill="url(#paint8_linear_106_80)"/>
<path d="M145.669 119.417C147.665 126.028 144.047 132.977 137.478 134.96C130.91 136.943 123.88 133.21 121.883 126.598C119.887 119.987 123.677 112.986 130.245 111.003C136.814 109.02 143.673 112.805 145.669 119.417Z" fill="url(#paint9_linear_106_80)"/>
<path d="M136.544 108.337L136.542 108.356L137.107 108.372C138.125 104.926 137.041 102.478 136.393 101.679L135.366 101.989C137.063 103.689 136.72 106.763 136.544 108.337Z" fill="#423636"/>
<path d="M142.382 104.309C142.382 104.309 142.06 106.338 140.52 107.492C138.981 108.646 137.09 108.276 137.09 108.276C137.09 108.276 137.163 106.211 138.702 105.057C140.242 103.903 142.382 104.309 142.382 104.309Z" fill="#378F63"/>
<path d="M211.1 137.082C211.1 156.349 192.184 171.969 168.85 171.969C145.516 171.969 125.3 168.616 125.3 137.082C125.3 113.446 145.516 102.194 168.85 102.194C192.184 102.194 211.1 117.814 211.1 137.082Z" fill="url(#paint10_radial_106_80)"/>
<path d="M228 137.082C228 156.349 246.916 171.969 270.25 171.969C293.584 171.969 313.8 168.616 313.8 137.082C313.8 113.446 293.584 102.194 270.25 102.194C246.916 102.194 228 117.814 228 137.082Z" fill="url(#paint11_radial_106_80)"/>
<ellipse cx="218.25" cy="149.839" rx="42.25" ry="39" fill="url(#paint12_radial_106_80)"/>
<path d="M262.694 217C278.05 219.194 280.331 201.289 279.269 201.887C273.564 205.099 251.404 192.697 248.8 217C250.148 217 250.409 215.245 262.694 217Z" fill="url(#paint13_linear_106_80)"/>
<path d="M249.875 215.448C255.538 212.219 257.146 209.8 264.933 209.287" stroke="#A5C965" stroke-width="0.975" stroke-linecap="round"/>
<path d="M223.146 64.9555C223.446 62.6756 225.562 60.9907 227.831 61.3005L229.406 61.5717C231.675 61.8814 233.138 63.8571 232.838 66.137L232.822 66.702L223.078 65.3494L223.146 64.9555Z" fill="url(#paint14_linear_106_80)"/>
<path d="M237.969 72.6169C239.965 79.2285 236.346 86.1771 229.778 88.1602C223.21 90.1432 216.179 86.4098 214.183 79.7982C212.187 73.1866 215.977 66.1863 222.545 64.2032C229.114 62.2202 235.973 66.0053 237.969 72.6169Z" fill="url(#paint15_linear_106_80)"/>
<path d="M228.843 61.5371L228.841 61.5555L229.406 61.5716C230.425 58.1257 229.341 55.678 228.693 54.8785L227.666 55.1885C229.363 56.8894 229.019 59.9626 228.843 61.5371Z" fill="#423636"/>
<path d="M234.682 57.5087C234.682 57.5087 234.36 59.5376 232.82 60.6917C231.281 61.8458 229.39 61.4756 229.39 61.4756C229.39 61.4756 229.463 59.4108 231.002 58.2567C232.542 57.1026 234.682 57.5087 234.682 57.5087Z" fill="#378F63"/>
<path d="M274.752 83.9977C274.511 81.7107 276.177 79.5787 278.455 79.3509L280.05 79.2471C282.328 79.0192 284.212 80.5991 284.453 82.886L284.569 83.4392L274.778 84.3965L274.752 83.9977Z" fill="url(#paint16_linear_106_80)"/>
<path d="M290.953 87.9907C294.436 93.9544 292.538 101.555 286.613 105.016C280.688 108.476 272.981 106.485 269.498 100.521C266.015 94.5576 268.068 86.8664 273.992 83.4062C279.917 79.946 287.47 82.027 290.953 87.9907Z" fill="url(#paint17_linear_106_80)"/>
<path d="M279.495 79.3449L279.497 79.3632L280.05 79.2471C280.237 75.6587 278.612 73.5313 277.795 72.905L276.869 73.4459C278.916 74.7042 279.299 77.7727 279.495 79.3449Z" fill="#423636"/>
<path d="M284.234 74.0657C284.234 74.0657 284.393 76.1138 283.165 77.5952C281.937 79.0765 280.013 79.1575 280.013 79.1575C280.013 79.1575 279.602 77.1327 280.83 75.6513C282.058 74.17 284.234 74.0657 284.234 74.0657Z" fill="#378F63"/>
<path d="M171.375 98.7555C171.075 96.4756 168.958 94.7907 166.69 95.1005L165.114 95.3716C162.846 95.6814 161.382 97.6571 161.682 99.937L161.698 100.502L171.443 99.1494L171.375 98.7555Z" fill="url(#paint18_linear_106_80)"/>
<path d="M156.551 106.417C154.555 113.028 158.174 119.977 164.742 121.96C171.311 123.943 178.341 120.21 180.337 113.598C182.333 106.987 178.544 99.9863 171.975 98.0032C165.407 96.0202 158.548 99.8053 156.551 106.417Z" fill="url(#paint19_linear_106_80)"/>
<path d="M165.677 95.3372L165.679 95.3555L165.114 95.3717C164.095 91.9257 165.18 89.478 165.828 88.6785L166.855 88.9885C165.158 90.6895 165.501 93.7626 165.677 95.3372Z" fill="#423636"/>
<path d="M159.838 91.3088C159.838 91.3088 160.161 93.3376 161.7 94.4917C163.24 95.6458 165.13 95.2757 165.13 95.2757C165.13 95.2757 165.058 93.2108 163.518 92.0567C161.979 90.9026 159.838 91.3088 159.838 91.3088Z" fill="#378F63"/>
<path d="M248.075 119.555C247.775 117.276 245.659 115.591 243.39 115.9L241.814 116.172C239.546 116.481 238.082 118.457 238.382 120.737L238.398 121.302L248.143 119.949L248.075 119.555Z" fill="url(#paint20_linear_106_80)"/>
<path d="M233.252 127.217C231.255 133.828 234.874 140.777 241.442 142.76C248.011 144.743 255.041 141.01 257.037 134.398C259.034 127.787 255.244 120.786 248.675 118.803C242.107 116.82 235.248 120.605 233.252 127.217Z" fill="url(#paint21_linear_106_80)"/>
<path d="M242.377 116.137L242.379 116.155L241.814 116.172C240.796 112.726 241.88 110.278 242.528 109.478L243.555 109.788C241.858 111.489 242.201 114.563 242.377 116.137Z" fill="#423636"/>
<path d="M236.539 112.109C236.539 112.109 236.861 114.138 238.401 115.292C239.94 116.446 241.831 116.076 241.831 116.076C241.831 116.076 241.758 114.011 240.218 112.857C238.679 111.703 236.539 112.109 236.539 112.109Z" fill="#378F63"/>
<defs>
<filter id="filter0_f_106_80" x="184" y="234.108" width="71" height="58" filterUnits="userSpaceOnUse" color-interpolation-filters="sRGB">
<feFlood flood-opacity="0" result="BackgroundImageFix"/>
<feBlend mode="normal" in="SourceGraphic" in2="BackgroundImageFix" result="shape"/>
<feGaussianBlur stdDeviation="8" result="effect1_foregroundBlur_106_80"/>
</filter>
<filter id="filter1_f_106_80" x="206.551" y="221.273" width="9.1" height="10.4" filterUnits="userSpaceOnUse" color-interpolation-filters="sRGB">
<feFlood flood-opacity="0" result="BackgroundImageFix"/>
<feBlend mode="normal" in="SourceGraphic" in2="BackgroundImageFix" result="shape"/>
<feGaussianBlur stdDeviation="0.65" result="effect1_foregroundBlur_106_80"/>
</filter>
<filter id="filter2_f_106_80" x="224.75" y="221.273" width="9.1" height="10.4" filterUnits="userSpaceOnUse" color-interpolation-filters="sRGB">
<feFlood flood-opacity="0" result="BackgroundImageFix"/>
<feBlend mode="normal" in="SourceGraphic" in2="BackgroundImageFix" result="shape"/>
<feGaussianBlur stdDeviation="0.65" result="effect1_foregroundBlur_106_80"/>
</filter>
<radialGradient id="paint0_radial_106_80" cx="0" cy="0" r="1" gradientUnits="userSpaceOnUse" gradientTransform="translate(192.891 247.356) rotate(86.8872) scale(252.26 1121.35)">
<stop stop-color="#A86536"/>
<stop offset="1" stop-color="#543B2F"/>
</radialGradient>
<linearGradient id="paint1_linear_106_80" x1="205.9" y1="244.673" x2="249.45" y2="244.673" gradientUnits="userSpaceOnUse">
<stop stop-color="#DD9D2E"/>
<stop offset="1" stop-color="#9C521B"/>
</linearGradient>
<linearGradient id="paint2_linear_106_80" x1="251.429" y1="214.123" x2="232.579" y2="241.423" gradientUnits="userSpaceOnUse">
<stop stop-color="#DD9D2E"/>
<stop offset="1" stop-color="#9C521B"/>
</linearGradient>
<radialGradient id="paint3_radial_106_80" cx="0" cy="0" r="1" gradientUnits="userSpaceOnUse" gradientTransform="translate(211.08 226.473) rotate(80.5377) scale(3.9538 3.29483)">
<stop stop-color="#FFCED1"/>
<stop offset="1" stop-color="#FFF6E7"/>
</radialGradient>
<radialGradient id="paint4_radial_106_80" cx="0" cy="0" r="1" gradientUnits="userSpaceOnUse" gradientTransform="translate(229.279 226.473) rotate(80.5377) scale(3.9538 3.29483)">
<stop stop-color="#FFCED1"/>
<stop offset="1" stop-color="#FFF6E7"/>
</radialGradient>
<radialGradient id="paint5_radial_106_80" cx="0" cy="0" r="1" gradientUnits="userSpaceOnUse" gradientTransform="translate(192.118 74.3451) rotate(105.442) scale(70.6814 75.7375)">
<stop stop-color="#D7E051"/>
<stop offset="1" stop-color="#8CC75C"/>
</radialGradient>
<radialGradient id="paint6_radial_106_80" cx="0" cy="0" r="1" gradientUnits="userSpaceOnUse" gradientTransform="translate(245.683 68.6487) rotate(74.5579) scale(70.6814 75.7375)">
<stop stop-color="#D7E051"/>
<stop offset="1" stop-color="#8CC75C"/>
</radialGradient>
<radialGradient id="paint7_radial_106_80" cx="0" cy="0" r="1" gradientUnits="userSpaceOnUse" gradientTransform="translate(196.8 45.1162) rotate(60.0779) scale(104.246 81.039)">
<stop stop-color="#D7E051"/>
<stop offset="1" stop-color="#8CC75C"/>
</radialGradient>
<linearGradient id="paint8_linear_106_80" x1="129.694" y1="109.485" x2="137.393" y2="134.986" gradientUnits="userSpaceOnUse">
<stop stop-color="#F3AB25"/>
<stop offset="1" stop-color="#F3AB25"/>
</linearGradient>
<linearGradient id="paint9_linear_106_80" x1="129.694" y1="109.485" x2="137.393" y2="134.986" gradientUnits="userSpaceOnUse">
<stop stop-color="#F4C21E"/>
<stop offset="1" stop-color="#F6843E"/>
</linearGradient>
<radialGradient id="paint10_radial_106_80" cx="0" cy="0" r="1" gradientUnits="userSpaceOnUse" gradientTransform="translate(161.7 128.316) rotate(61.6916) scale(53.6218 85.9299)">
<stop stop-color="#CED839"/>
<stop offset="1" stop-color="#58BE06"/>
</radialGradient>
<radialGradient id="paint11_radial_106_80" cx="0" cy="0" r="1" gradientUnits="userSpaceOnUse" gradientTransform="translate(277.4 128.316) rotate(118.308) scale(53.6218 85.9299)">
<stop stop-color="#CED839"/>
<stop offset="1" stop-color="#58BE06"/>
</radialGradient>
<radialGradient id="paint12_radial_106_80" cx="0" cy="0" r="1" gradientUnits="userSpaceOnUse" gradientTransform="translate(215 134.166) rotate(69.8429) scale(62.4744 91.7615)">
<stop stop-color="#CED839"/>
<stop offset="1" stop-color="#58BE06"/>
</radialGradient>
<linearGradient id="paint13_linear_106_80" x1="263.334" y1="195.592" x2="271.827" y2="226.332" gradientUnits="userSpaceOnUse">
<stop stop-color="#DFE589"/>
<stop offset="1" stop-color="#7CC93C"/>
</linearGradient>
<linearGradient id="paint14_linear_106_80" x1="221.993" y1="62.685" x2="229.693" y2="88.186" gradientUnits="userSpaceOnUse">
<stop stop-color="#F3AB25"/>
<stop offset="1" stop-color="#F3AB25"/>
</linearGradient>
<linearGradient id="paint15_linear_106_80" x1="221.993" y1="62.685" x2="229.693" y2="88.186" gradientUnits="userSpaceOnUse">
<stop stop-color="#F4C21E"/>
<stop offset="1" stop-color="#F6843E"/>
</linearGradient>
<linearGradient id="paint16_linear_106_80" x1="273.102" y1="82.0585" x2="286.536" y2="105.061" gradientUnits="userSpaceOnUse">
<stop stop-color="#F3AB25"/>
<stop offset="1" stop-color="#F3AB25"/>
</linearGradient>
<linearGradient id="paint17_linear_106_80" x1="273.102" y1="82.0585" x2="286.536" y2="105.061" gradientUnits="userSpaceOnUse">
<stop stop-color="#F4C21E"/>
<stop offset="1" stop-color="#F6843E"/>
</linearGradient>
<linearGradient id="paint18_linear_106_80" x1="172.527" y1="96.485" x2="164.828" y2="121.986" gradientUnits="userSpaceOnUse">
<stop stop-color="#F3AB25"/>
<stop offset="1" stop-color="#F3AB25"/>
</linearGradient>
<linearGradient id="paint19_linear_106_80" x1="172.527" y1="96.485" x2="164.828" y2="121.986" gradientUnits="userSpaceOnUse">
<stop stop-color="#F4C21E"/>
<stop offset="1" stop-color="#F6843E"/>
</linearGradient>
<linearGradient id="paint20_linear_106_80" x1="249.227" y1="117.285" x2="241.528" y2="142.786" gradientUnits="userSpaceOnUse">
<stop stop-color="#F3AB25"/>
<stop offset="1" stop-color="#F3AB25"/>
</linearGradient>
<linearGradient id="paint21_linear_106_80" x1="249.227" y1="117.285" x2="241.528" y2="142.786" gradientUnits="userSpaceOnUse">
<stop stop-color="#F4C21E"/>
<stop offset="1" stop-color="#F6843E"/>
</linearGradient>
</defs>
</svg>
