<svg width="18" height="19" viewBox="0 0 18 19" fill="none" xmlns="http://www.w3.org/2000/svg">
<path d="M2.87904 15.2276C1.66988 14.0184 1.66988 12.0526 2.87904 10.8435L5.70746 8.01506L4.36396 6.67156L1.53553 9.49999C-0.416081 11.4516 -0.416081 14.6194 1.53553 16.5711C3.48715 18.5227 6.65499 18.5227 8.6066 16.5711L11.435 13.7426L10.0915 12.3991L7.2631 15.2276C6.05395 16.4367 4.08819 16.4367 2.87904 15.2276ZM6.48528 13.0355L12.1421 7.37867L10.7279 5.96445L5.07107 11.6213L6.48528 13.0355ZM8.6066 2.42892L5.77817 5.25735L7.12168 6.60085L9.9501 3.77242C11.1593 2.56327 13.125 2.56327 14.3342 3.77242C15.5433 4.98158 15.5433 6.94733 14.3342 8.15649L11.5057 10.9849L12.8492 12.3284L15.6777 9.49999C17.6293 7.54837 17.6293 4.38054 15.6777 2.42892C13.7261 0.477306 10.5582 0.477306 8.6066 2.42892Z" fill="#111111"/>
</svg>
