<svg width="71" height="28" viewBox="0 0 71 28" fill="none" xmlns="http://www.w3.org/2000/svg">
<path d="M15.1935 18.528H0.5295V15.278H5.4695V14.212C4.18683 14.056 3.1815 13.64 2.4535 12.964C1.7255 12.2707 1.3615 11.2567 1.3615 9.922C1.3615 9.38467 1.48283 8.882 1.7255 8.414C1.96817 7.92867 2.2715 7.582 2.6355 7.374H0.3995V4.15H5.6775V2.018H9.9935V4.15H15.1935V7.374H12.9575C13.3215 7.582 13.6248 7.92867 13.8675 8.414C14.1102 8.882 14.2315 9.38467 14.2315 9.922C14.2315 11.274 13.8588 12.2967 13.1135 12.99C12.3682 13.666 11.3455 14.0733 10.0455 14.212V15.278H15.1935V18.528ZM15.7655 19.386C16.5282 19.386 17.2302 19.464 17.8715 19.62C18.5128 19.7587 19.0675 19.9927 19.5355 20.322C20.0035 20.634 20.3675 21.0413 20.6275 21.544C20.8875 22.0467 21.0175 22.6447 21.0175 23.338C21.0175 24.0487 20.8875 24.6467 20.6275 25.132C20.3675 25.6347 20.0035 26.042 19.5355 26.354C19.0675 26.6833 18.5128 26.9173 17.8715 27.056C17.2302 27.212 16.5282 27.29 15.7655 27.29H6.5355C5.77283 27.29 5.07083 27.212 4.4295 27.056C3.78817 26.9173 3.2335 26.6833 2.7655 26.354C2.2975 26.042 1.9335 25.6347 1.6735 25.132C1.4135 24.6467 1.2835 24.0487 1.2835 23.338C1.2835 22.6447 1.4135 22.0467 1.6735 21.544C1.9335 21.0413 2.2975 20.634 2.7655 20.322C3.2335 19.9927 3.78817 19.7587 4.4295 19.62C5.07083 19.464 5.77283 19.386 6.5355 19.386H15.7655ZM20.4455 18.762H16.1295V3.5H20.4455V8.518H22.7335V12.158H20.4455V18.762ZM8.1735 11.014C8.72817 11.014 9.15283 10.8493 9.4475 10.52C9.7595 10.1907 9.9155 9.74 9.9155 9.168C9.9155 8.596 9.7595 8.154 9.4475 7.842C9.15283 7.51267 8.72817 7.348 8.1735 7.348H7.4195C6.86483 7.348 6.4315 7.51267 6.1195 7.842C5.82483 8.154 5.6775 8.596 5.6775 9.168C5.6775 9.74 5.82483 10.1907 6.1195 10.52C6.4315 10.8493 6.86483 11.014 7.4195 11.014H8.1735ZM14.4135 23.962C15.1588 23.962 15.7222 23.9273 16.1035 23.858C16.5022 23.7887 16.7015 23.6153 16.7015 23.338C16.7015 23.0607 16.5022 22.8873 16.1035 22.818C15.7222 22.7487 15.1588 22.714 14.4135 22.714H7.8615C7.09883 22.714 6.52683 22.7487 6.1455 22.818C5.7815 22.8873 5.5995 23.0607 5.5995 23.338C5.5995 23.6153 5.79017 23.7887 6.1715 23.858C6.57017 23.9273 7.1335 23.962 7.8615 23.962H14.4135ZM40.264 23.91V21.362H29.292V23.91H40.264ZM44.58 24.768C44.58 25.6867 44.3893 26.3367 44.008 26.718C43.6267 27.0993 42.9767 27.29 42.058 27.29H24.976V19.932C24.976 19.152 25.106 18.632 25.366 18.372C25.626 18.112 26.146 17.982 26.926 17.982H44.58V24.768ZM45.828 16.656H23.728V13.276H45.828V16.656ZM43.982 12.34H39.666L40.16 7.608C40.212 7.12267 39.9693 6.88 39.432 6.88H25.106V3.552H43.384C43.8347 3.552 44.1727 3.682 44.398 3.942C44.6407 4.202 44.7447 4.54867 44.71 4.982L43.982 12.34Z" fill="black"/>
<path d="M48.7985 5.294H68.3765V8.336H51.8925V25.314H48.7985V5.294ZM67.2585 5.294H70.4045V21.726C70.4045 23.416 70.0405 24.3 68.9485 24.794C67.8305 25.288 66.1665 25.366 63.8265 25.366C63.6965 24.482 63.2285 23.026 62.7865 22.194C64.3205 22.298 66.0885 22.298 66.6085 22.272C67.1025 22.272 67.2585 22.142 67.2585 21.674V5.294ZM57.3525 0.925999L61.3565 1.498C60.4465 3.578 59.3285 5.71 58.4965 7.14L55.4805 6.464C56.2085 4.878 56.9885 2.616 57.3525 0.925999ZM54.4405 10.858H57.2745V21.596H54.4405V10.858ZM55.6625 10.858H64.6585V19.776H55.6625V17.046H61.7725V13.588H55.6625V10.858Z" fill="#F6843E"/>
</svg>
