<svg width="52" height="52" viewBox="0 0 52 52" fill="none" xmlns="http://www.w3.org/2000/svg">
<path fill-rule="evenodd" clip-rule="evenodd" d="M11.9287 6.35777C11.7055 5.13009 12.6486 4 13.8964 4H38.2088C39.4207 4 40.3542 5.06937 40.1904 6.27023L37.5 26H15.5L11.9287 6.35777ZM5.5 29C5.5 28.4477 5.94772 28 6.5 28H45.5C46.0523 28 46.5 28.4477 46.5 29V31C46.5 31.5523 46.0523 32 45.5 32H6.5C5.94771 32 5.5 31.5523 5.5 31V29ZM28.4487 46.9012C38.5545 50.9147 40.7654 42.5452 38.8988 43.8351C36.8664 45.2397 35.5146 43.4072 34.0593 41.4341C32.1892 38.8989 30.148 36.1317 26.2718 39.7024C26.1754 39.7948 26.0851 39.8884 26.0008 39.9829C25.9159 39.8888 25.8251 39.7953 25.7282 39.7024C21.852 36.1317 19.8108 38.8989 17.9407 41.4341C16.4854 43.4072 15.1336 45.2397 13.1012 43.8351C11.2606 42.5632 13.3847 50.6833 23.1333 47.0618C24.1979 46.6664 25.2445 45.931 25.9812 45.017C26.6119 45.8468 27.4955 46.5226 28.4487 46.9012Z" fill="#ACACAC"/>
</svg>
