<svg width="53" height="57" viewBox="0 0 53 57" fill="none" xmlns="http://www.w3.org/2000/svg">
<path d="M28.3119 12.7014L28.3124 12.7273L29.0989 12.6467C29.8836 7.68267 27.9343 4.48599 26.8896 3.49552L25.5223 4.11245C28.1852 6.16191 28.269 10.486 28.3119 12.7014Z" fill="#423636"/>
<path d="M35.6747 6.05139C35.6747 6.05139 35.5973 8.92348 33.6727 10.8044C31.748 12.6853 29.0592 12.5165 29.0592 12.5165C29.0592 12.5165 28.7834 9.64002 30.7081 7.7591C32.6328 5.87818 35.6747 6.05139 35.6747 6.05139Z" fill="#378F63"/>
<path d="M21.0341 18.4798C21.0344 15.2636 23.6621 12.5416 26.8644 12.5578L29.0987 12.6467C32.3009 12.6629 34.6903 15.1358 34.69 18.3519L34.7706 19.1384L21.0118 19.0383L21.0341 18.4798Z" fill="#F37425"/>
<path d="M42.9852 26.4026C46.958 35.2071 43.2061 45.502 34.4593 49.4487C25.7126 53.3954 15.2832 49.4994 11.3104 40.6949C7.33769 31.8905 11.3174 21.4927 20.0642 17.546C28.811 13.5993 39.0125 17.5982 42.9852 26.4026Z" fill="#F37425"/>
</svg>
