<svg width="58" height="58" viewBox="0 0 58 58" fill="none" xmlns="http://www.w3.org/2000/svg">
<path d="M7 56.9999H52L48.7073 49.3269H10.2927L7 56.9999Z" fill="#F3D9AF"/>
<path d="M10.2964 16.4423H48.711C51.3971 30.5615 51.4653 38.4816 48.711 52.6154H10.2964C7.70636 38.2846 7.75504 30.4075 10.2964 16.4423Z" fill="#F3D9AF"/>
<ellipse cx="13.5851" cy="9.86537" rx="4.39024" ry="3.28846" fill="#C06001"/>
<ellipse cx="4.39024" cy="3.28846" rx="4.39024" ry="3.28846" transform="matrix(-1 0 0 1 48.707 6.5769)" fill="#C06001"/>
<ellipse cx="20.1705" cy="6.57691" rx="4.39024" ry="3.28846" fill="#C06001"/>
<ellipse cx="4.39024" cy="3.28846" rx="4.39024" ry="3.28846" transform="matrix(-1 0 0 1 42.1216 3.28845)" fill="#C06001"/>
<ellipse cx="25.6583" cy="7.67304" rx="4.39024" ry="3.28846" fill="#C06001"/>
<ellipse cx="4.39024" cy="3.28846" rx="4.39024" ry="3.28846" transform="matrix(-1 0 0 1 36.6338 4.38458)" fill="#C06001"/>
<ellipse cx="25.6583" cy="3.28846" rx="4.39024" ry="3.28846" fill="#C06001"/>
<ellipse cx="4.39024" cy="3.28846" rx="4.39024" ry="3.28846" transform="matrix(-1 0 0 1 36.6338 0)" fill="#C06001"/>
<ellipse cx="30.0484" cy="6.57691" rx="4.39024" ry="3.28846" fill="#C06001"/>
<ellipse cx="4.39024" cy="3.28846" rx="4.39024" ry="3.28846" transform="matrix(-1 0 0 1 32.2437 3.28845)" fill="#C06001"/>
<path d="M7 8.76923H52L48.7073 16.4423H10.2927L7 8.76923Z" fill="#F3D9AF"/>
<path d="M36.0451 33.8289C33.2953 35.4262 29.963 34.7987 29.4235 33.8585C28.884 32.9184 30.01 29.7011 32.7598 28.1037C35.5096 26.5064 38.8419 27.1339 39.3814 28.0741C39.9209 29.0142 38.7949 32.2315 36.0451 33.8289Z" fill="#7DD63D"/>
<path d="M22.9544 33.8289C25.7042 35.4262 29.0365 34.7987 29.576 33.8585C30.1155 32.9184 28.9895 29.7011 26.2397 28.1037C23.4899 26.5064 20.1576 27.1339 19.6181 28.0741C19.0786 29.0142 20.2046 32.2315 22.9544 33.8289Z" fill="#7DD63D"/>
<rect x="28.8696" y="32.8846" width="1.08947" height="7.67308" fill="#7DD63D"/>
</svg>
