<svg width="58" height="58" viewBox="0 0 58 58" fill="none" xmlns="http://www.w3.org/2000/svg">
<path d="M27.8403 4.30429C28.3707 3.35323 29.7617 3.28249 30.3941 4.16898C33.3421 8.30121 36.0205 8.96014 40.3223 6.83583C41.284 6.36092 42.4622 7.04305 42.541 8.11272C42.8713 12.5924 44.7976 14.5675 50.4785 15.3073C51.4027 15.4276 51.9832 16.3951 51.6586 17.2688C49.7628 22.371 50.6765 25.0354 54.6531 28.043C55.3335 28.5576 55.4277 29.5603 54.8447 30.1831C51.0796 34.205 50.3285 36.9325 51.6505 40.7168C51.9595 41.6012 51.3944 42.5807 50.4666 42.7109C45.2923 43.437 43.1388 45.261 42.6215 50.2755C42.5205 51.2551 41.4888 51.8901 40.5824 51.5052C35.5776 49.3801 32.7501 49.7074 30.1291 53.9243C29.5779 54.8111 28.2695 54.9022 27.6196 54.085C24.9137 50.683 22.3664 49.7927 17.6198 51.5115C16.6531 51.8615 15.6007 51.1209 15.5965 50.0929C15.5754 44.8398 13.5277 42.9964 8.07036 42.5909C7.00968 42.5121 6.36862 41.3277 6.87168 40.3906C9.39576 35.6887 8.67392 32.9971 3.63979 29.9325C2.85044 29.452 2.69932 28.3449 3.37377 27.7132L7.39299 23.9484C7.7681 23.597 7.91115 23.0632 7.76198 22.5713L6.10113 17.0952C5.85196 16.2737 6.42697 15.4351 7.27783 15.3208C12.5007 14.619 14.6409 12.8135 15.2963 8.05189C15.4411 6.99986 16.6435 6.39983 17.5597 6.93683C22.6039 9.89334 25.1924 9.05219 27.8403 4.30429Z" fill="url(#paint0_radial_93_112)"/>
<circle cx="29.675" cy="29" r="17.55" fill="url(#paint1_radial_93_112)"/>
<defs>
<radialGradient id="paint0_radial_93_112" cx="0" cy="0" r="1" gradientUnits="userSpaceOnUse" gradientTransform="translate(26.3 31.3625) rotate(59.6627) scale(68.8244)">
<stop stop-color="#FFDC41"/>
<stop offset="1" stop-color="#EDA70A"/>
</radialGradient>
<radialGradient id="paint1_radial_93_112" cx="0" cy="0" r="1" gradientUnits="userSpaceOnUse" gradientTransform="translate(29.675 25.2875) rotate(90) scale(21.2625)">
<stop stop-color="#F7EE8A"/>
<stop offset="1" stop-color="#FFEF3D"/>
</radialGradient>
</defs>
</svg>
