<svg width="52" height="52" viewBox="0 0 52 52" fill="none" xmlns="http://www.w3.org/2000/svg">
<path fill-rule="evenodd" clip-rule="evenodd" d="M10.449 22.3172C11.2641 14.7424 17.6575 9 25.276 9C32.8944 9 39.2879 14.7424 40.103 22.3171L40.9024 29.7458H20.1173V28.3675C20.1173 27.3567 18.9443 26.7986 18.16 27.4362L16.0735 29.1322L13.9869 27.4362C13.2026 26.7986 12.0296 27.3567 12.0296 28.3675V29.7458H9.64963L10.449 22.3172ZM16.4499 31.6387L15.6969 31.6389L13.9869 33.0288C13.2026 33.6664 12.0296 33.1082 12.0296 32.0975V31.6394L10.8301 31.6396C6.88875 31.8849 3.44383 34.4618 2.1167 38.2231C1.76277 39.2261 2.30026 40.3224 3.33093 40.5854C14.6778 43.4799 37.6515 44.0696 48.7188 40.7062C49.767 40.3876 50.2547 39.2332 49.8506 38.215C48.3385 34.4059 44.749 31.8486 40.6898 31.6349L20.1173 31.6382V32.0975C20.1173 33.1082 18.9443 33.6664 18.16 33.0288L16.4499 31.6387Z" fill="white"/>
</svg>
